<?xml version="1.0" encoding="UTF-8"?>
<svg width="16px" height="16px" viewBox="0 0 16 16" version="1.1" xmlns="http://www.w3.org/2000/svg" xmlns:xlink="http://www.w3.org/1999/xlink">
    <!-- Generator: Sketch 64 (93537) - https://sketch.com -->
    <title>icon/Check/active</title>
    <desc>Created with Sketch.</desc>
    <g id="Plata-Online-Desktop-1366" stroke="none" stroke-width="1" fill="none" fill-rule="evenodd">
        <g id="icon/Check/active" fill="#008641">
            <path d="M14,0 C15.1045695,-2.02906125e-16 16,0.8954305 16,2 L16,14 C16,15.1045695 15.1045695,16 14,16 L2,16 C0.8954305,16 1.3527075e-16,15.1045695 0,14 L0,2 C-1.3527075e-16,0.8954305 0.8954305,2.02906125e-16 2,0 L14,0 Z M12.6262588,4.22038478 C12.1956892,3.87451158 11.566258,3.94317159 11.2203848,4.37374119 L11.2203848,4.37374119 L7.18,9.403 L4.77961522,6.41472479 L4.69498434,6.32181096 C4.33808315,5.97604498 3.77119005,5.94210082 3.37374119,6.26136838 C2.94317159,6.60724157 2.87451158,7.23667282 3.22038478,7.66724242 L3.22038478,7.66724242 L6.40063169,11.6262588 L6.48525673,11.7192788 C6.90048822,12.1223656 7.58625083,12.091359 7.95986214,11.6262588 L7.95986214,11.6262588 L12.7796152,5.62625881 L12.8520975,5.52358609 C13.1127839,5.1005315 13.0237077,4.53965234 12.6262588,4.22038478 Z" id="Combined-Shape"></path>
        </g>
    </g>
</svg>