<?xml version="1.0" encoding="UTF-8"?>
<svg width="20px" height="20px" viewBox="0 0 20 20" version="1.1" xmlns="http://www.w3.org/2000/svg" xmlns:xlink="http://www.w3.org/1999/xlink">
    <title>2A58F9C2-8D70-4955-830F-A3E43286AC97</title>
    <g id="Styleguide" stroke="none" stroke-width="1" fill="none" fill-rule="evenodd">
        <g transform="translate(-559.000000, -7702.000000)" fill="currentColor" id="Group-38">
            <g transform="translate(136.000000, 7495.000000)">
                <g id="calendar" transform="translate(423.000000, 207.000000)">
                    <path d="M16,1 C16.5522847,1 17,1.44771525 17,2 L17,3 L20,3 L20,18 C20,18.5522847 19.5522847,19 19,19 L1,19 C0.44771525,19 6.76353751e-17,18.5522847 0,18 L0,3 L3,3 L3,2 C3,1.44771525 3.44771525,1 4,1 C4.55228475,1 5,1.44771525 5,2 L5,3 L15,3 L15,2 C15,1.44771525 15.4477153,1 16,1 Z M18,5 L2,5 L2,17 L18,17 L18,5 Z M16,11 L16,15 L10,15 L10,11 L16,11 Z" id="Combined-Shape"></path>
                </g>
            </g>
        </g>
    </g>
</svg>
