<?xml version="1.0" encoding="UTF-8"?>
<svg width="20px" height="20px" viewBox="0 0 20 20" version="1.1" xmlns="http://www.w3.org/2000/svg" xmlns:xlink="http://www.w3.org/1999/xlink">
    <title>2EA65E73-5133-452D-8804-8D6B5FBF0733</title>
    <g id="ðŸŽ¨-Styleguide" stroke="none" stroke-width="1" fill="none" fill-rule="evenodd">
        <g id="00-01-Styleguide" transform="translate(-87.000000, -5121.000000)" fill="#6A7098">
            <g id="Icon" transform="translate(87.000000, 5121.000000)">
                <path d="M15.5,15 C16.8807119,15 18,16.1192881 18,17.5 C18,18.8807119 16.8807119,20 15.5,20 C14.1192881,20 13,18.8807119 13,17.5 C13,16.1192881 14.1192881,15 15.5,15 Z M7.5,15 C8.88071187,15 10,16.1192881 10,17.5 C10,18.8807119 8.88071187,20 7.5,20 C6.11928813,20 5,18.8807119 5,17.5 C5,16.1192881 6.11928813,15 7.5,15 Z M3.28137986,0 C4.15660643,-1.60776513e-16 4.93016677,0.569083062 5.19070834,1.40463057 L6,4 L20,4 L17.4558482,11.6324555 C17.1836201,12.4491398 16.4193424,13 15.5584816,13 L5,13 L3,2 L1,2 C0.44771525,2 6.76353751e-17,1.55228475 0,1 C-6.76353751e-17,0.44771525 0.44771525,1.01453063e-16 1,0 L3.28137986,0 Z" id="ðŸŽ-Color"></path>
            </g>
        </g>
    </g>
</svg>