<?xml version="1.0" encoding="UTF-8"?>
<svg width="20px" height="20px" viewBox="0 0 20 20" version="1.1" xmlns="http://www.w3.org/2000/svg" xmlns:xlink="http://www.w3.org/1999/xlink">
    <title>6B7E718B-A9C6-41FB-B926-E0190455A19E</title>
    <g id="ðŸŽ¨-Styleguide" stroke="none" stroke-width="1" fill="none" fill-rule="evenodd">
        <g id="00-01-Styleguide" transform="translate(-519.000000, -5236.000000)" fill="#D9471F">
            <g id="Group-9" transform="translate(87.000000, 5180.000000)">
                <g id="Icon" transform="translate(432.000000, 56.000000)">
                    <path d="M15,2 C16.6568542,2 18,3.34314575 18,5 L18,15 C18,16.6568542 16.6568542,18 15,18 L5,18 C3.34314575,18 2,16.6568542 2,15 L2,5 C2,3.34314575 3.34314575,2 5,2 L15,2 Z M14.6,6.2 C14.1581722,5.86862915 13.5313708,5.9581722 13.2,6.4 L13.2,6.4 L9.44,11.413 L6.75257669,8.34149539 L6.66411163,8.25222446 C6.29297925,7.92178032 5.72515998,7.9117168 5.34149539,8.24742331 C4.92585876,8.61110536 4.88374125,9.24286798 5.24742331,9.65850461 L5.24742331,9.65850461 L8.74742331,13.6585046 L8.83537505,13.7474196 C9.26465914,14.1309033 9.94408149,14.074558 10.3,13.6 L10.3,13.6 L14.8,7.6 L14.8690296,7.49497485 C15.1155105,7.06348933 15.007841,6.50588078 14.6,6.2 Z" id="ðŸŽ-Color"></path>
                </g>
            </g>
        </g>
    </g>
</svg>