<?xml version="1.0" encoding="UTF-8"?>
<svg width="16px" height="16px" viewBox="0 0 16 16" version="1.1" xmlns="http://www.w3.org/2000/svg" xmlns:xlink="http://www.w3.org/1999/xlink">
    <!-- Generator: Sketch 64 (93537) - https://sketch.com -->
    <title>Icon / Check</title>
    <desc>Created with Sketch.</desc>
    <g id="Style-Guide" stroke="none" stroke-width="1" fill="none" fill-rule="evenodd">
        <g id="Styleguide" transform="translate(-151.000000, -4855.000000)" fill="#D9471F">
            <g id="Group-2" transform="translate(135.000000, 4745.000000)">
                <g id="Group" transform="translate(0.000000, 48.000000)">
                    <g id="Succes" transform="translate(0.000000, 50.000000)">
                        <g id="Icon-/-Check" transform="translate(16.000000, 12.000000)">
                            <g id="Group-8">
                                <path d="M8,0 C12.418278,0 16,3.581722 16,8 C16,12.418278 12.418278,16 8,16 C3.581722,16 0,12.418278 0,8 C0,3.581722 3.581722,0 8,0 Z M12.6371609,4.22926917 C12.211498,3.87737493 11.5811634,3.93717623 11.2292692,4.36283911 L11.2292692,4.36283911 L6.926,9.567 L4.66102536,7.57173901 L4.56175102,7.49466779 C4.15097442,7.21503381 3.58662803,7.27854089 3.24963644,7.66107721 C2.88456221,8.07549156 2.92456029,8.70739191 3.33897464,9.07246613 L3.33897464,9.07246613 L6.37879245,11.7503636 L6.47282513,11.8238529 C6.89358554,12.1142817 7.47651651,12.0412172 7.81054863,11.6371609 L7.81054863,11.6371609 L12.7707308,5.63716089 L12.8446498,5.53551766 C13.11126,5.11617103 13.0300805,4.55409463 12.6371609,4.22926917 Z" id="Combined-Shape"></path>
                            </g>
                        </g>
                    </g>
                </g>
            </g>
        </g>
    </g>
</svg>