<?xml version="1.0" encoding="UTF-8"?>
<svg width="20px" height="20px" viewBox="0 0 20 20" version="1.1" xmlns="http://www.w3.org/2000/svg" xmlns:xlink="http://www.w3.org/1999/xlink">
    <title>16ECD640-726D-4E8B-B8D7-E0C781D81CCD</title>
    <g id="ðŸŽ¨-Styleguide" stroke="none" stroke-width="1" fill="none" fill-rule="evenodd">
        <g id="00-09-Styleguide" transform="translate(-339.000000, -5236.000000)" fill="#6A7098">
            <g id="Group-9" transform="translate(87.000000, 5180.000000)">
                <g id="Icon" transform="translate(252.000000, 56.000000)">
                    <path d="M15.6066017,4.29289322 C15.997126,4.68341751 15.997126,5.31658249 15.6066017,5.70710678 L11.3646681,9.94904036 L15.6066017,14.1923882 C15.997126,14.5829124 15.997126,15.2160774 15.6066017,15.6066017 C15.2160774,15.997126 14.5829124,15.997126 14.1923882,15.6066017 L9.94974747,11.363961 L5.70710678,15.6066017 C5.31658249,15.997126 4.68341751,15.997126 4.29289322,15.6066017 C3.90236893,15.2160774 3.90236893,14.5829124 4.29289322,14.1923882 L8.53553391,9.94974747 L4.29289322,5.70710678 C3.90236893,5.31658249 3.90236893,4.68341751 4.29289322,4.29289322 C4.68341751,3.90236893 5.31658249,3.90236893 5.70710678,4.29289322 L9.94974747,8.53553391 L14.1923882,4.29289322 C14.5829124,3.90236893 15.2160774,3.90236893 15.6066017,4.29289322 Z" id="ðŸŽ-Color"></path>
                </g>
            </g>
        </g>
    </g>
</svg>