<?xml version="1.0" encoding="UTF-8"?>
<svg width="20px" height="20px" viewBox="0 0 20 20" version="1.1" xmlns="http://www.w3.org/2000/svg" xmlns:xlink="http://www.w3.org/1999/xlink">
    <title>3E14AFF8-942D-432D-B220-10C9F4CB5160</title>
    <g id="ðŸŽ¨-Styleguide" stroke="none" stroke-width="1" fill="none" fill-rule="evenodd">
        <g id="00-01-Styleguide" transform="translate(-159.000000, -5121.000000)" fill="#fff">
            <g id="Icon" transform="translate(159.000000, 5121.000000)">
                <path d="M14,0 C14.5522847,-1.01453063e-16 15,0.44771525 15,1 L17,1 C17.5522847,1 18,1.44771525 18,2 L18,18 L19,18 C19.5522847,18 20,18.4477153 20,19 L20,20 L0,20 L0,19 C-6.76353751e-17,18.4477153 0.44771525,18 1,18 L2,18 L2,2 C2,1.44771525 2.44771525,1 3,1 L5,1 C5,0.44771525 5.44771525,1.01453063e-16 6,0 L14,0 Z M15,11 L11,11 L11,18 L15,18 L15,11 Z M9,11 L5,11 L5,15 L9,15 L9,11 Z M9,4 L5,4 L5,8 L9,8 L9,4 Z M15,4 L11,4 L11,8 L15,8 L15,4 Z" id="ðŸŽ-Color"></path>
            </g>
        </g>
    </g>
</svg>