<?xml version="1.0" encoding="UTF-8"?>
<svg width="20px" height="20px" viewBox="0 0 20 20" version="1.1" xmlns="http://www.w3.org/2000/svg" xmlns:xlink="http://www.w3.org/1999/xlink">
    <title>9E4AA63E-8563-4690-B732-560BC5538119</title>
    <g id="ðŸŽ¨-Styleguide" stroke="none" stroke-width="1" fill="none" fill-rule="evenodd">
        <g id="00-01-Styleguide" transform="translate(-231.000000, -5121.000000)" fill="#ffffff">
            <g id="Icon" transform="translate(231.000000, 5121.000000)">
                <path d="M16,7 L16.1166211,7.00672773 C16.6139598,7.06449284 17,7.48716416 17,8 L17,8 L16.9932723,8.11662113 C16.9355072,8.61395981 16.5128358,9 16,9 L16,9 L15,9 L15,17 L14.9932723,17.1166211 C14.9355072,17.6139598 14.5128358,18 14,18 L14,18 L6,18 L5.88337887,17.9932723 C5.38604019,17.9355072 5,17.5128358 5,17 L5,17 L5,9 L4,9 L3.88337887,8.99327227 C3.38604019,8.93550716 3,8.51283584 3,8 C3,7.44771525 3.44771525,7 4,7 L4,7 L16,7 Z M11,2 C11.3366863,2 11.6476865,2.1690883 11.8316104,2.44460233 L11.8944272,2.5527864 L12.618,4 L16,4 C16.5128358,4 16.9355072,4.38604019 16.9932723,4.88337887 L17,5 C17,5.51283584 16.6139598,5.93550716 16.1166211,5.99327227 L16,6 L4,6 C3.44771525,6 3,5.55228475 3,5 C3,4.48716416 3.38604019,4.06449284 3.88337887,4.00672773 L4,4 L7.381,4 L8.10557281,2.5527864 C8.25614349,2.25164505 8.54646418,2.0490966 8.87514471,2.00780363 L9,2 L11,2 Z" id="ðŸŽ-Color"></path>
            </g>
        </g>
    </g>
</svg>