<?xml version="1.0" encoding="UTF-8"?>
<svg width="14px" height="12px" viewBox="0 0 14 12" version="1.1" xmlns="http://www.w3.org/2000/svg" xmlns:xlink="http://www.w3.org/1999/xlink">
    <!-- Generator: Sketch 64 (93537) - https://sketch.com -->
    <title>dubble right</title>
    <desc>Created with Sketch.</desc>
    <g id="Styleguide" stroke="none" stroke-width="1" fill="none" fill-rule="evenodd">
        <g transform="translate(-250.000000, -8059.000000)" fill="#4C4F51" id="Group-86">
            <g transform="translate(0.000000, 3420.000000)">
                <g id="Group-85" transform="translate(136.000000, 4376.000000)">
                    <g id="Group-36" transform="translate(7.000000, 259.000000)">
                        <g id="Group-17">
                            <g id="Icon/Pagination/Next" transform="translate(104.000000, 0.000000)">
                                <path d="M16.624695,4.21916801 C17.022783,4.53763837 17.1129831,5.09833787 16.8531452,5.52191408 L16.7808688,5.62473187 L13.28,10.0000368 L16.7808688,14.3753418 C17.0993392,14.7734297 17.0642589,15.3402537 16.7177783,15.6964611 L16.624695,15.7809056 C16.2266071,16.099376 15.6597832,16.0642957 15.3035757,15.7178151 L15.2191312,15.6247319 L11.2191312,10.6247319 C10.9535176,10.2927149 10.9293709,9.83364495 11.1466911,9.47852745 L11.2191312,9.37534178 L15.2191312,4.37534178 C15.5641407,3.94407984 16.1934331,3.87415847 16.624695,4.21916801 Z M8.62469505,4.21916801 C9.02278299,4.53763837 9.11298311,5.09833787 8.85314515,5.52191408 L8.78086881,5.62473187 L5.28,10.0000368 L8.78086881,14.3753418 C9.09933916,14.7734297 9.0642589,15.3402537 8.71777831,15.6964611 L8.62469505,15.7809056 C8.22660711,16.099376 7.65978317,16.0642957 7.30357569,15.7178151 L7.21913119,15.6247319 L3.21913119,10.6247319 C2.95351763,10.2927149 2.92937094,9.83364495 3.14669113,9.47852745 L3.21913119,9.37534178 L7.21913119,4.37534178 C7.56414074,3.94407984 8.19343311,3.87415847 8.62469505,4.21916801 Z" id="Combined-Shape" transform="translate(10.000018, 10.000037) scale(-1, -1) translate(-10.000018, -10.000037) " fill="#A7ACA9"></path>
                            </g>
                        </g>
                    </g>
                </g>
            </g>
        </g>
    </g>
</svg>