<?xml version="1.0" encoding="UTF-8"?>
<svg width="20px" height="12px" viewBox="0 0 20 12" version="1.1" xmlns="http://www.w3.org/2000/svg" xmlns:xlink="http://www.w3.org/1999/xlink">
    <!-- Generator: Sketch 64 (93537) - https://sketch.com -->
    <title>dubble arrow left</title>
    <desc>Created with Sketch.</desc>
    <g id="Styleguide" stroke="none" stroke-width="1" fill="none" fill-rule="evenodd">
        <g transform="translate(-143.000000, -8059.000000)" fill="#4C4F51" id="Group-86">
            <g transform="translate(0.000000, 3420.000000)">
                <g id="Group-85" transform="translate(136.000000, 4376.000000)">
                    <g id="Group-36" transform="translate(7.000000, 259.000000)">
                        <g id="Group-17">
                            <g id="Icon/Pagination/First">
                                <path d="M1,4 C1.55228475,4 2,4.44771525 2,5 L2,15 C2,15.5522847 1.55228475,16 1,16 C0.44771525,16 6.76353751e-17,15.5522847 0,15 L0,5 C-6.76353751e-17,4.44771525 0.44771525,4 1,4 Z M19.624695,4.21913119 C20.022783,4.53760154 20.1129831,5.09830105 19.8531452,5.52187726 L19.7808688,5.62469505 L16.28,10 L19.7808688,14.375305 C20.0993392,14.7733929 20.0642589,15.3402168 19.7177783,15.6964243 L19.624695,15.7808688 C19.2266071,16.0993392 18.6597832,16.0642589 18.3035757,15.7177783 L18.2191312,15.624695 L14.2191312,10.624695 C13.9535176,10.2926781 13.9293709,9.83360813 14.1466911,9.47849062 L14.2191312,9.37530495 L18.2191312,4.37530495 C18.5641407,3.94404302 19.1934331,3.87412164 19.624695,4.21913119 Z M11.624695,4.21913119 C12.022783,4.53760154 12.1129831,5.09830105 11.8531452,5.52187726 L11.7808688,5.62469505 L8.28,10 L11.7808688,14.375305 C12.0993392,14.7733929 12.0642589,15.3402168 11.7177783,15.6964243 L11.624695,15.7808688 C11.2266071,16.0993392 10.6597832,16.0642589 10.3035757,15.7177783 L10.2191312,15.624695 L6.21913119,10.624695 C5.95351763,10.2926781 5.92937094,9.83360813 6.14669113,9.47849062 L6.21913119,9.37530495 L10.2191312,4.37530495 C10.5641407,3.94404302 11.1934331,3.87412164 11.624695,4.21913119 Z" id="Combined-Shape" fill="#A7ACA9"></path>
                            </g>
                        </g>
                    </g>
                </g>
            </g>
        </g>
    </g>
</svg>