<?xml version="1.0" encoding="UTF-8"?>
<svg width="20px" height="20px" viewBox="0 0 20 20" version="1.1" xmlns="http://www.w3.org/2000/svg" xmlns:xlink="http://www.w3.org/1999/xlink">
    <title>EBFE0644-E7E3-47E0-9AB4-8E7C6CE0711B</title>
    <g id="ðŸŽ¨-Styleguide" stroke="none" stroke-width="1" fill="none" fill-rule="evenodd">
        <g id="00-09-Styleguide" transform="translate(-411.000000, -5272.000000)" fill="#6A7098">
            <g id="Group-9" transform="translate(87.000000, 5180.000000)">
                <g id="Icon" transform="translate(324.000000, 92.000000)">
                    <path d="M13,2 L11,4 L4,4 L4,16 L16,16 L16,8.998 L18,6.999 L18,16 C18,17.1045695 17.1045695,18 16,18 L4,18 C2.8954305,18 2,17.1045695 2,16 L2,4.00019408 C2,2.89562458 2.8954305,2.00019408 4,2.00019408 L13,2 Z M16.9142136,2.91421356 L17.0857864,3.08578644 C17.866835,3.86683502 17.866835,5.13316498 17.0857864,5.91421356 L9,14 L5,15 L6,11 L14.0857864,2.91421356 C14.866835,2.13316498 16.133165,2.13316498 16.9142136,2.91421356 Z" id="ðŸŽ-Color"></path>
                </g>
            </g>
        </g>
    </g>
</svg>