<?xml version="1.0" encoding="UTF-8"?>
<svg width="20px" height="20px" viewBox="0 0 20 20" version="1.1" xmlns="http://www.w3.org/2000/svg" xmlns:xlink="http://www.w3.org/1999/xlink">
    <title>Icon/Edit</title>
    <g id="Icon/Edit" stroke="none" stroke-width="1" fill="none" fill-rule="evenodd">
        <path d="M15,0 L15.0193545,0.000186147798 C15.042681,0.000634893312 15.0659949,0.00189498016 15.0892501,0.00396640833 L15,0 C15.0506203,0 15.1003621,0.00376118706 15.1489612,0.0110193427 C15.165949,0.0136280806 15.1833753,0.0167021706 15.2007258,0.020240071 C15.2227461,0.0246397952 15.2444365,0.0298336259 15.2658396,0.0357209664 C15.2814633,0.0400977346 15.2968513,0.0447287157 15.3121425,0.0497380859 C15.3317977,0.0561224864 15.3515792,0.0633157362 15.3710585,0.0711039637 C15.3887956,0.0781964242 15.4060985,0.0856790475 15.4232215,0.0936733617 C15.4438914,0.103376643 15.4642939,0.11379392 15.484277,0.12487577 C15.4963944,0.131498828 15.5086131,0.138606922 15.5207088,0.145995454 C15.546275,0.1617187 15.5711307,0.178490093 15.5951593,0.196313506 C15.602603,0.201753444 15.6098424,0.207284482 15.6170223,0.212927691 C15.6801818,0.262551711 15.7374483,0.319818245 15.787214,0.383249919 L15.7071068,0.292893219 C15.7425008,0.328287271 15.774687,0.365674419 15.8036654,0.404693385 C15.8215099,0.428869307 15.8382813,0.453725048 15.8539326,0.479339815 C15.8613931,0.491386894 15.8685012,0.503605559 15.8753288,0.515937903 C15.8862061,0.535706055 15.8966234,0.556108604 15.9063462,0.576900852 C15.914321,0.593901505 15.9218036,0.611204351 15.9287745,0.628663976 C15.9366843,0.648420797 15.9438775,0.668202324 15.9504533,0.688263589 C15.9552713,0.703148659 15.9599023,0.718536724 15.9641549,0.734007034 C15.9701664,0.755563524 15.9753602,0.777253921 15.9798348,0.799205901 C15.9832978,0.816624737 15.9863719,0.83405099 15.9889822,0.851533135 C15.9920328,0.871475338 15.9944666,0.892113954 15.9962623,0.912934987 C15.9978436,0.931734513 15.9989053,0.949733631 15.9994829,0.967745384 C15.9998183,0.977789211 16,0.988873384 16,1 L15.9994506,1.03324678 C15.9988772,1.05059097 15.997855,1.06792309 15.996384,1.08522423 L16,1 C16,1.05062028 15.9962388,1.10036209 15.9889807,1.14896122 C15.9863719,1.16594901 15.9832978,1.18337526 15.9797599,1.20072576 C15.9753602,1.22274608 15.9701664,1.24443648 15.964279,1.26583961 C15.9599023,1.28146328 15.9552713,1.29685134 15.9502619,1.31214252 C15.9438775,1.33179768 15.9366843,1.3515792 15.928896,1.37105852 C15.9218036,1.38879565 15.914321,1.4060985 15.9063266,1.42322155 C15.8966234,1.4438914 15.8862061,1.46429395 15.8751242,1.48427695 C15.8685012,1.49639444 15.8613931,1.50861311 15.8540045,1.52070875 C15.8382813,1.54627495 15.8215099,1.57113069 15.8036865,1.5951593 C15.7992821,1.60120864 15.7948255,1.60707334 15.7902954,1.61289944 C15.7849289,1.61966276 15.7826279,1.62256244 15.7803112,1.62544899 L15.7071068,1.70710678 L6,11.414 L6,14 L8.584,14 L18.2928932,4.29289322 C18.6533772,3.93240926 19.2206082,3.90467972 19.6128994,4.20970461 L19.7071068,4.29289322 C20.0675907,4.65337718 20.0953203,5.22060824 19.7902954,5.61289944 L19.7071068,5.70710678 L9.70710678,15.7071068 C9.55082647,15.8633871 9.34814508,15.9625983 9.13144398,15.9913276 L9,16 L4,16 L4,11 C4,10.7789863 4.07316447,10.565516 4.20608063,10.3919705 L4.29289322,10.2928932 L12.584,2 L2,2 L2,18 L18,18 L18,11 L20,9 L20,19 C20,19.5128358 19.6139598,19.9355072 19.1166211,19.9932723 L19,20 L1,20 C0.487164161,20 0.0644928393,19.6139598 0.00672773133,19.1166211 L0,19 L0,1 C0,0.487164161 0.38604019,0.0644928393 0.883378875,0.00672773133 L1,0 L15,0 Z" id="ðŸŽ-Culoare" fill="#008641"></path>
    </g>
</svg>