<?xml version="1.0" encoding="UTF-8"?>
<svg width="16px" height="16px" viewBox="0 0 16 16" version="1.1" xmlns="http://www.w3.org/2000/svg" xmlns:xlink="http://www.w3.org/1999/xlink">
    <!-- Generator: Sketch 64 (93537) - https://sketch.com -->
    <title>ico /error</title>
    <desc>Created with Sketch.</desc>
    <g id="Style-Guide" stroke="none" stroke-width="1" fill="none" fill-rule="evenodd">
        <g id="Styleguide" transform="translate(-135.000000, -5257.000000)" fill="#C32328">
            <g id="Group-22" transform="translate(135.000000, 5217.000000)">
                <g id="Group-21" transform="translate(0.000000, 40.000000)">
                    <g id="ico-/error">
                        <path d="M8,0 C12.418278,0 16,3.581722 16,8 C16,12.418278 12.418278,16 8,16 C3.581722,16 0,12.418278 0,8 C0,3.581722 3.581722,0 8,0 Z M5.61289944,4.20970461 C5.22060824,3.90467972 4.65337718,3.93240926 4.29289322,4.29289322 L4.29289322,4.29289322 L4.20970461,4.38710056 C3.90467972,4.77939176 3.93240926,5.34662282 4.29289322,5.70710678 L4.29289322,5.70710678 L6.767,8.182 L4.29289322,10.6568542 C3.90236893,11.0473785 3.90236893,11.6805435 4.29289322,12.0710678 C4.68341751,12.4615921 5.31658249,12.4615921 5.70710678,12.0710678 L5.70710678,12.0710678 L8.182,9.597 L10.6568542,12.0710678 L10.7510616,12.1542564 C11.1433528,12.4592813 11.7105839,12.4315518 12.0710678,12.0710678 L12.0710678,12.0710678 L12.1542564,11.9768605 C12.4592813,11.5845693 12.4315518,11.0173382 12.0710678,10.6568542 L12.0710678,10.6568542 L9.597,8.182 L12.0710678,5.70710678 C12.4615921,5.31658249 12.4615921,4.68341751 12.0710678,4.29289322 C11.6805435,3.90236893 11.0473785,3.90236893 10.6568542,4.29289322 L10.6568542,4.29289322 L8.182,6.767 L5.70710678,4.29289322 Z" id="Combined-Shape"></path>
                    </g>
                </g>
            </g>
        </g>
    </g>
</svg>