<?xml version="1.0" encoding="UTF-8"?>
<svg width="20px" height="20px" viewBox="0 0 20 20" version="1.1" xmlns="http://www.w3.org/2000/svg" xmlns:xlink="http://www.w3.org/1999/xlink">
    <title>B3C03FC9-3A30-457D-8F13-48D96D705E45</title>
    <g id="Desktop" stroke="none" stroke-width="1" fill="none" fill-rule="evenodd">
        <g id="Optiuni-Plati" transform="translate(-1048.000000, -10.000000)" fill="#008641">
            <g id="Group">
                <g id="Icons/Arrow/View-Copy-2" transform="translate(1048.000000, 10.000000)">
                    <path d="M0,20 L0,12 L2,12 L2,18 L18,18 L18,12 L20,12 L20,20 L0,20 Z M10,1 L15.7071068,6.70710678 L15.7864022,6.79403662 C16.5646388,7.73346134 15.2071323,9.03555941 14.2928932,8.12132034 L14.2928932,8.12132034 L11,4.83021356 L11,14.4142136 L9,14.4142136 L9,4.82921356 L5.70710678,8.12132034 L5.62017694,8.20061579 C4.71010924,8.95453246 3.4596811,7.70410432 4.21359778,6.79403662 L4.21359778,6.79403662 L4.29289322,6.70710678 L10,1 Z" id="ðŸŽ-Culoare"></path>
                </g>
            </g>
        </g>
    </g>
</svg>
