<?xml version="1.0" encoding="UTF-8"?>
<svg width="12px" height="24px" viewBox="0 0 12 24" version="1.1" xmlns="http://www.w3.org/2000/svg" xmlns:xlink="http://www.w3.org/1999/xlink">
    <!-- Generator: Sketch 64 (93537) - https://sketch.com -->
    <title>icon/facebook</title>
    <desc>Created with Sketch.</desc>
    <g id="Style-Guide" stroke="none" stroke-width="1" fill="none" fill-rule="evenodd">
        <g id="Styleguide" transform="translate(-597.000000, -5257.000000)" fill="#FFFFFF">
            <g id="icon/facebook" transform="translate(591.000000, 5257.000000)">
                <path d="M17.1392405,7.76202532 L13.3468354,7.76202532 L13.3468354,5.27594937 C13.3468354,4.33924051 13.964557,4.12151899 14.4,4.12151899 C14.835443,4.12151899 17.078481,4.12151899 17.078481,4.12151899 L17.078481,0.0151898734 L13.3924051,0 C9.30126582,0 8.36962025,3.06329114 8.36962025,5.02278481 L8.36962025,7.76202532 L6,7.76202532 L6,11.9949367 L8.36455696,11.9949367 C8.36455696,17.4278481 8.36455696,23.9696203 8.36455696,23.9696203 L13.3417722,23.9696203 C13.3417722,23.9696203 13.3417722,17.3620253 13.3417722,11.9949367 L16.6987342,11.9949367 L17.1392405,7.76202532 Z" id="Path"></path>
            </g>
        </g>
    </g>
</svg>