<?xml version="1.0" encoding="UTF-8"?>
<svg width="20px" height="20px" viewBox="0 0 20 20" version="1.1" xmlns="http://www.w3.org/2000/svg" xmlns:xlink="http://www.w3.org/1999/xlink">
    <title>075F8211-BBF0-4B16-8774-CE22444CB905</title>
    <g id="Styleguide" stroke="none" stroke-width="1" fill="none" fill-rule="evenodd">
        <g transform="translate(-403.000000, -8104.000000)" fill="#E1261C" id="Group-38">
            <g transform="translate(136.000000, 7845.000000)">
                <g id="interzis" transform="translate(267.000000, 259.000000)">
                    <path d="M10,0 C15.5228475,0 20,4.4771525 20,10 C20,15.5228475 15.5228475,20 10,20 C4.4771525,20 0,15.5228475 0,10 C0,4.4771525 4.4771525,0 10,0 Z M16.1136527,5.6546379 L5.6546379,16.1136527 C6.88060508,16.9865967 8.38034665,17.5 10,17.5 C14.1421356,17.5 17.5,14.1421356 17.5,10 C17.5,8.38034665 16.9865967,6.88060508 16.1136527,5.6546379 Z M10,2.5 C5.85786438,2.5 2.5,5.85786438 2.5,10 C2.5,11.6196533 3.01340331,13.1193949 3.88634731,14.3453621 L14.3453621,3.88634731 C13.1193949,3.01340331 11.6196533,2.5 10,2.5 Z" id="ðŸŽ-Culoare"></path>
                </g>
            </g>
        </g>
    </g>
</svg>