<?xml version="1.0" encoding="UTF-8"?>
<svg width="16px" height="16px" viewBox="0 0 16 16" version="1.1" xmlns="http://www.w3.org/2000/svg" xmlns:xlink="http://www.w3.org/1999/xlink">
    <!-- Generator: Sketch 64 (93537) - https://sketch.com -->
    <title>ico /info</title>
    <desc>Created with Sketch.</desc>
    <g id="Style-Guide" stroke="none" stroke-width="1" fill="none" fill-rule="evenodd">
        <g id="Styleguide" transform="translate(-184.000000, -5257.000000)" fill="#0087EA">
            <g id="Group-22" transform="translate(135.000000, 5217.000000)">
                <g id="Group-21" transform="translate(0.000000, 40.000000)">
                    <g id="ico-/info" transform="translate(49.000000, 0.000000)">
                        <path d="M8,0 C12.418278,0 16,3.581722 16,8 C16,12.418278 12.418278,16 8,16 C3.581722,16 0,12.418278 0,8 C0,3.581722 3.581722,0 8,0 Z M9,6 L7,6 L7,13 L9,13 L9,6 Z M8,3 C7.44771525,3 7,3.44771525 7,4 C7,4.55228475 7.44771525,5 8,5 C8.55228475,5 9,4.55228475 9,4 C9,3.44771525 8.55228475,3 8,3 Z" id="Combined-Shape"></path>
                    </g>
                </g>
            </g>
        </g>
    </g>
</svg>
