<?xml version="1.0" encoding="UTF-8"?>
<svg width="20px" height="20px" viewBox="0 0 20 20" version="1.1" xmlns="http://www.w3.org/2000/svg" xmlns:xlink="http://www.w3.org/1999/xlink">
    <title>88DE2E1C-D524-4BA9-8388-DEC355187C85</title>
    <g id="ðŸŽ¨-Styleguide" stroke="none" stroke-width="1" fill="none" fill-rule="evenodd">
        <g id="00-01-Styleguide" transform="translate(-303.000000, -5121.000000)" fill="#fff">
            <g id="Icon" transform="translate(303.000000, 5121.000000)">
                <path d="M5,5 C7.05049747,5 8.81270639,6.23431003 9.58415773,8.00046106 L18.381966,8 C18.7607381,8 19.1070012,8.21400238 19.2763932,8.5527864 L20,10 L19.2763932,11.4472136 C19.1070012,11.7859976 18.7607381,12 18.381966,12 L17.5,12 C17.2238576,12 17,11.7761424 17,11.5 C17,11.2238576 16.7761424,11 16.5,11 C16.2238576,11 16,11.2238576 16,11.5 C16,11.7761424 15.7761424,12 15.5,12 L15,12 C14.7238576,12 14.5,11.7761424 14.5,11.5 C14.5,11.2238576 14.2761424,11 14,11 C13.7238576,11 13.5,11.2238576 13.5,11.5 C13.5,11.7761424 13.2761424,12 13,12 L12.5,12 C12.2238576,12 12,11.7761424 12,11.5 C12,11.2238576 11.7761424,11 11.5,11 C11.2238576,11 11,11.2238576 11,11.5 C11,11.7761424 10.7761424,12 10.5,12 L9.58372366,12.0005324 C8.81204551,13.7661528 7.05011298,15 5,15 C2.23857625,15 0,12.7614237 0,10 C0,7.23857625 2.23857625,5 5,5 Z M4,8 C2.8954305,8 2,8.8954305 2,10 C2,11.1045695 2.8954305,12 4,12 C5.1045695,12 6,11.1045695 6,10 C6,8.8954305 5.1045695,8 4,8 Z" id="ðŸŽ-Color"></path>
            </g>
        </g>
    </g>
</svg>