<?xml version="1.0" encoding="UTF-8"?>
<svg width="20px" height="20px" viewBox="0 0 20 20" version="1.1" xmlns="http://www.w3.org/2000/svg" xmlns:xlink="http://www.w3.org/1999/xlink">
    <!-- Generator: Sketch 64 (93537) - https://sketch.com -->
    <title>icon/facebook copy 2</title>
    <desc>Created with Sketch.</desc>
    <g id="Style-Guide" stroke="none" stroke-width="1" fill="none" fill-rule="evenodd">
        <g id="Styleguide" transform="translate(-649.000000, -5259.000000)" fill="#FFFFFF">
            <g id="icon/linkedin" transform="translate(647.000000, 5257.000000)">
                <path d="M6.16666667,7.83333333 L6.16666667,22 L2,22 L2,7.83333333 L6.16666667,7.83333333 Z M12.7888889,7.83333333 L13.0430556,10.6666667 L13.1291667,10.6666667 C13.9833333,9.25 15.3486111,8.2895 17.2208333,8.2895 C18.6444444,8.2895 19.7958333,8.69325 20.675,9.70758333 C21.5597222,10.7233333 22,12.0861667 22,14.0000833 L22,22 L17.8333333,22 L17.8333333,14.4321667 C17.8333333,12.4601667 17.1444444,11.4784167 15.7791667,11.4784167 C14.6972222,11.4784167 14.0111111,12.0280833 13.6666667,13.1288333 L13.6666667,22 L13.6666667,22 L9.5,22 L9.50071413,21.8316933 C9.50702225,20.3232788 9.55178908,9.1539548 9.5,7.83333333 L12.7888889,7.83333333 Z M4.08333333,2 C5.23392656,2 6.16666667,2.9327401 6.16666667,4.08333333 C6.16666667,5.23392656 5.23392656,6.16666667 4.08333333,6.16666667 C2.9327401,6.16666667 2,5.23392656 2,4.08333333 C2,2.9327401 2.9327401,2 4.08333333,2 Z" id="Combined-Shape"></path>
            </g>
        </g>
    </g>
</svg>