<?xml version="1.0" encoding="UTF-8"?>
<svg width="20px" height="20px" viewBox="0 0 20 20" version="1.1" xmlns="http://www.w3.org/2000/svg" xmlns:xlink="http://www.w3.org/1999/xlink">
    <title>Icons/Log</title>
    <g id="Icons/Log" stroke="none" stroke-width="1" fill="none" fill-rule="evenodd">
        <path d="M13.5498047,0 L18,4.92480469 L18,19 C18,19.5522847 17.5522847,20 17,20 L3,20 C2.44771525,20 2,19.5522847 2,19 L2,1 C2,0.44771525 2.44771525,0 3,0 L13.5498047,0 Z M12,2 L4,2 L4,18 L16,18 L16,7 L12.5,7 C12.2545401,7 12.0503916,6.82312484 12.0080557,6.58987563 L12,6.5 L12,2 Z M13,13 C13.5522847,13 14,13.4477153 14,14 C14,14.5522847 13.5522847,15 13,15 L7,15 C6.44771525,15 6,14.5522847 6,14 C6,13.4477153 6.44771525,13 7,13 L13,13 Z M13,9 C13.5522847,9 14,9.44771525 14,10 C14,10.5522847 13.5522847,11 13,11 L7,11 C6.44771525,11 6,10.5522847 6,10 C6,9.44771525 6.44771525,9 7,9 L13,9 Z M9,5 C9.55228475,5 10,5.44771525 10,6 C10,6.55228475 9.55228475,7 9,7 L7,7 C6.44771525,7 6,6.55228475 6,6 C6,5.44771525 6.44771525,5 7,5 L9,5 Z" id="Combined-Shape"  fill="#008641"></path>
    </g>
</svg>