<?xml version="1.0" encoding="UTF-8"?>
<svg width="135px" height="40px" viewBox="0 0 135 40" version="1.1" xmlns="http://www.w3.org/2000/svg" xmlns:xlink="http://www.w3.org/1999/xlink">
    <!-- Generator: Sketch 64 (93537) - https://sketch.com -->
    <title>Logo</title>
    <desc>Created with Sketch.</desc>
    <g id="Symbols" stroke="none" stroke-width="1" fill="none" fill-rule="evenodd">
        <g id="UI/header" transform="translate(-1133.000000, -32.000000)">
            <g id="Logo" transform="translate(1133.000000, 32.000000)">
                <path d="M133.660288,0.135888202 L133.660288,5.34040632 L130.407224,5.34040632 L130.041254,5.34040632 L129.675284,5.34040632 L129.309315,5.47629452 L128.943345,5.61218272 L128.631593,5.8024262 L128.306286,6.01984733 L128.035198,6.25085727 L127.750554,6.52263367 L127.49302,6.84876536 L127.262595,7.16130822 L127.032169,7.52820636 L126.855962,7.89510451 L126.6662,8.26200265 L126.530655,8.6289008 L126.395111,9.0365654 L126.30023,9.44423 L126.30023,9.86548343 L126.30023,10.273148 L126.30023,10.6808126 L126.30023,11.0884772 L126.30023,11.4553754 L126.435774,11.86304 L126.584873,12.2299381 L126.720417,12.5560698 L126.950843,12.922968 L127.181268,13.2355108 L127.49302,13.520876 L127.804772,13.7926525 L128.170742,14.0100736 L128.631593,14.2003171 L129.078889,14.3769717 L129.593958,14.4720935 L129.593958,10.3954474 L134.70398,10.3954474 L134.70398,20.3832302 L133.063893,20.3832302 L131.559351,20.2881085 L130.122581,20.1386315 L128.767137,19.9619768 L128.116524,19.8668551 L127.547238,19.6766116 L126.950843,19.5407234 L126.395111,19.3640687 L125.852933,19.1330588 L125.337865,18.9020488 L124.890569,18.6710389 L124.429718,18.3992625 L123.968867,18.0867196 L123.562234,17.7605879 L123.196264,17.3936898 L122.81674,17.0403805 L122.504988,16.619127 L122.179681,16.170696 L121.908593,15.7086761 L121.678167,15.2058897 L121.447742,14.6623369 L121.271534,14.1051953 L121.081772,13.4665208 L120.946228,12.8278462 L120.851347,12.1484052 L120.756466,11.4689642 L120.756466,10.6808126 L120.756466,9.90624989 L120.756466,9.40346354 L120.756466,8.95503248 L120.756466,8.45224613 L120.851347,7.99022625 L121.041109,7.0797753 L121.352861,6.16932435 L121.718831,5.34040632 L122.179681,4.52507711 L122.735413,3.79128082 L123.345363,3.05748453 L124.023085,2.41880999 L124.755024,1.87525718 L125.120994,1.60348078 L125.527627,1.35888202 L125.93426,1.12787207 L126.354448,0.951217411 L126.761081,0.760973928 L127.221931,0.584319266 L127.669228,0.448431065 L128.116524,0.353309324 L128.631593,0.271776403 L129.078889,0.176654662 L129.593958,0.176654662 L133.660288,0.176654662 L133.660288,0.135888202 Z M108.977661,0.135888202 L108.977661,5.2588734 L105.873696,5.2588734 L105.602607,5.34040632 L105.372181,5.43552806 L105.182419,5.61218272 L105.087538,5.8024262 L105.087538,6.03343615 L105.087538,6.25085727 L105.182419,6.48186721 L105.317964,6.71287715 L109.465621,10.7895232 L109.750264,11.0612996 L109.98069,11.3738425 L110.19756,11.7407406 L110.346659,12.0668723 L110.482204,12.4201816 L110.577085,12.7870798 L110.658411,13.2083332 L110.658411,13.9828959 L110.658411,14.3497941 L110.658411,14.7574587 L110.56353,15.1651233 L110.468649,15.5320214 L110.333105,15.939686 L110.143343,16.3065842 L110.007798,16.7142488 L109.546948,17.4480451 L109.045433,18.1410749 L108.774345,18.4128513 L108.503256,18.7253942 L108.17795,18.9971706 L107.852643,19.268947 L107.540891,19.4999569 L107.215585,19.6902004 L106.863169,19.8668551 L106.4972,20.0570985 L106.13123,20.1386315 L105.76526,20.2337532 L105.39929,20.3288749 L97.8630242,20.3288749 L97.8630242,14.6215705 L103.284798,14.6215705 L103.420343,14.6215705 L103.59655,14.6215705 L103.745649,14.6215705 L103.826976,14.4856823 L104.057401,14.2546723 L104.152282,13.9285407 L104.152282,13.5616425 L104.152282,13.2490996 L104.152282,13.0588562 L104.152282,12.922968 L104.070956,12.7463133 L103.921857,12.6104251 L99.4488931,8.53377905 L99.1100323,8.15329209 L98.947379,7.89510451 L98.8118347,7.6233281 L98.6762903,7.31078524 L98.4458649,6.67211069 L98.3103206,5.97908087 L98.3103206,5.29963986 L98.3103206,4.60661003 L98.4458649,3.92716902 L98.635627,3.28849448 L98.7711714,2.96236279 L98.947379,2.71776403 L99.1371411,2.39163235 L99.3133488,2.11985594 L99.5437742,1.84807954 L99.7741996,1.6170696 L100.031734,1.34529319 L100.302823,1.10069443 L100.614575,0.86968449 L100.926327,0.679441008 L101.292296,0.543552806 L101.658266,0.407664605 L102.024236,0.326131684 L102.485087,0.231009943 L102.89172,0.231009943 L103.352571,0.231009943 L108.977661,0.135888202 Z M75.7828488,20.3832302 L83.6037581,0 L90.0963327,0 L97.3208468,20.3832302 L91.3297863,20.3832302 L90.231877,17.0539693 L84.3899153,17.0539693 L85.8537944,12.5288922 L88.5646815,12.5288922 L86.3688629,7.36514052 L81.6790282,20.3832302 L75.7828488,20.3832302 Z M112.176508,0.135888202 L112.176508,20.3832302 L119.279032,20.3832302 L119.279032,0.135888202 L112.176508,0.135888202 Z M68.0161573,0.0951217411 L68.0161573,20.3832302 L75.0509093,20.3832302 L75.0509093,0.135888202 L68.0161573,0.0951217411 Z M47.684504,0.0951217411 L47.684504,20.3832302 L53.2960403,20.3832302 L53.2960403,10.9661779 L58.8804677,20.478352 L64.7359839,20.478352 L64.7359839,0.135888202 L58.7720323,0.135888202 L58.7720323,9.82471697 L53.0249516,0.135888202 L47.684504,0.0951217411 Z M33.4523468,6.40033429 L30.0772923,0.176654662 L23.6389355,0.176654662 L21.3482359,20.2745197 L27.8814738,20.2745197 L29.0742641,9.26757534 L33.4523468,16.4832388 L37.8575383,9.26757534 L39.0774375,20.2745197 L45.6106754,20.2745197 L43.3741935,0.176654662 L36.8951734,0.176654662 L33.4523468,6.40033429 Z M10.0705645,20.1922227 C15.6323837,20.1922227 20.141129,15.6720397 20.141129,10.0961114 C20.141129,4.52018302 15.6323837,0 10.0705645,0 C4.50874531,0 0,4.52018302 0,10.0961114 C0,15.6720397 4.50874531,20.1922227 10.0705645,20.1922227 Z M10.0705645,14.7348652 C12.625995,14.7348652 14.6975806,12.6580244 14.6975806,10.0961114 C14.6975806,7.53419834 12.625995,5.45735749 10.0705645,5.45735749 C7.51513407,5.45735749 5.44354839,7.53419834 5.44354839,10.0961114 C5.44354839,12.6580244 7.51513407,14.7348652 10.0705645,14.7348652 Z" id="Shape" fill="#2D7D43"></path>
                <rect id="Rectangle" fill="#E1261C" x="0" y="25.2480278" width="134.717534" height="2.01114538"></rect>
                <polygon id="Path" fill="#2E2E2D" fill-rule="nonzero" points="3.41571774 39.4619337 2.56178831 39.4619337 0.0813266129 32.2462702 1.23345363 32.2462702 3.02263911 37.4915548 4.70338911 32.2462702 5.93684274 32.2462702"></polygon>
                <rect id="Rectangle" fill="#2E2E2D" fill-rule="nonzero" x="6.99408871" y="32.2462702" width="1.13857258" height="7.2156635"></rect>
                <polygon id="Path" fill="#2E2E2D" fill-rule="nonzero" points="10.1522722 39.4619337 10.1522722 32.2462702 14.9505423 32.2462702 14.9505423 33.2382541 11.2772903 33.2382541 11.2772903 35.3445212 14.3948105 35.3445212 14.3948105 36.3093274 11.2772903 36.3093274 11.2772903 38.456361 14.9505423 38.456361 14.9505423 39.4619337"></polygon>
                <polygon id="Path" fill="#2E2E2D" fill-rule="nonzero" points="21.1584738 39.4619337 17.6749839 34.379715 17.6749839 39.4619337 16.5499657 39.4619337 16.5499657 32.2462702 17.5936573 32.2462702 21.0635927 37.3149001 21.0635927 32.2462702 22.2157198 32.2462702 22.2157198 39.4619337"></polygon>
                <polygon id="Path" fill="#2E2E2D" fill-rule="nonzero" points="28.8031754 39.4619337 25.3196855 34.379715 25.3196855 39.4619337 24.1811129 39.4619337 24.1811129 32.2462702 25.2248044 32.2462702 28.7082944 37.3149001 28.7082944 32.2462702 29.8468669 32.2462702 29.8468669 39.4619337"></polygon>
                <path d="M36.1632339,39.4075784 L35.6481653,38.0486964 L32.679744,38.0486964 L32.1782298,39.4075784 L30.9447762,39.4075784 L33.7369899,32.1919149 L34.6451371,32.1919149 L37.3560242,39.4075784 L36.1632339,39.4075784 Z M34.1842863,33.8225734 L33.0457137,37.0295349 L35.3364133,37.0295349 L34.1842863,33.8225734 Z" id="Shape" fill="#2E2E2D" fill-rule="nonzero"></path>
                <rect id="Rectangle" fill="#2E2E2D" fill-rule="nonzero" x="41.0428306" y="32.2462702" width="1.13857258" height="7.2156635"></rect>
                <polygon id="Path" fill="#2E2E2D" fill-rule="nonzero" points="48.8230766 39.4619337 45.3395867 34.379715 45.3395867 39.4619337 44.2010141 39.4619337 44.2010141 32.2462702 45.2447056 32.2462702 48.7281956 37.3149001 48.7281956 32.2462702 49.8667681 32.2462702 49.8667681 39.4619337"></polygon>
                <polygon id="Path" fill="#2E2E2D" fill-rule="nonzero" points="53.8382177 39.5027002 53.4315847 39.5027002 53.0656149 39.4619337 52.6996452 39.4075784 52.3336754 39.2716902 52.0219234 39.1765685 51.7372802 38.9999138 51.479746 38.8232592 51.1951028 38.5378939 51.9134879 37.8040977 52.1439133 37.9943411 52.3743387 38.1709958 52.6047641 38.2661175 52.8351895 38.3612393 53.2960403 38.4971275 53.8924355 38.5378939 54.2041875 38.4971275 54.529494 38.456361 54.8005827 38.3612393 54.9903448 38.2253511 55.1665524 38.0894629 55.3020968 37.8992194 55.3969778 37.6682095 55.3969778 37.4507883 55.3969778 37.2197784 55.3563145 36.9887684 55.2614335 36.8121138 55.1258891 36.6626368 54.9903448 36.5811038 54.8005827 36.4859821 54.5701573 36.4452156 54.2990685 36.3500939 53.3909214 36.2549722 52.9707339 36.1598504 52.6047641 36.0239622 52.2387944 35.888074 51.9677056 35.6706529 51.7372802 35.3852877 51.5475181 35.0727448 51.479746 34.7058467 51.4255282 34.2981821 51.479746 34.0671721 51.479746 33.8361622 51.5204093 33.6595075 51.6152903 33.4284976 51.7101714 33.2382541 51.8321613 33.0615994 51.9677056 32.9257112 52.10325 32.789823 52.4692198 32.5180466 52.8758528 32.3278031 53.3909214 32.2462702 53.9330988 32.1919149 54.2990685 32.1919149 54.624375 32.2462702 54.936127 32.2870367 55.2614335 32.3821584 55.5325222 32.5180466 55.7629476 32.6539348 56.0475907 32.789823 56.2644617 33.020833 55.5325222 33.700274 55.3969778 33.5643858 55.1665524 33.4284976 54.9903448 33.3333758 54.8005827 33.2382541 54.3939496 33.1567212 53.9330988 33.1567212 53.6077923 33.1567212 53.3367036 33.1974876 53.1062782 33.3333758 52.8758528 33.469264 52.7403085 33.6051522 52.6454274 33.7953957 52.5641008 34.0264057 52.5641008 34.2438268 52.5641008 34.4340703 52.6047641 34.6107249 52.6996452 34.8009684 52.8351895 34.9368566 52.9707339 35.0319783 53.2011593 35.1135113 53.4315847 35.208633 53.6620101 35.2493995 54.529494 35.3852877 54.9903448 35.4804094 55.3969778 35.5755312 55.681621 35.7114194 55.9527097 35.888074 56.088254 36.0239622 56.2237984 36.2142057 56.3186794 36.3500939 56.4135605 36.5267486 56.4948871 36.948002 56.5491048 37.3964331 56.5491048 37.627443 56.4948871 37.8584529 56.4542238 38.0894629 56.3593427 38.2661175 56.2237984 38.456361 56.088254 38.6330157 55.9527097 38.8232592 55.7629476 38.9455586 55.3969778 39.1765685 54.936127 39.366812 54.3939496 39.4619337"></polygon>
                <polygon id="Path" fill="#2E2E2D" fill-rule="nonzero" points="60.6967621 39.5027002 60.4256734 39.5027002 60.1545847 39.4619337 59.8699415 39.4075784 59.5988528 39.3124567 59.3684274 39.2309238 59.138002 39.0950356 58.9617944 38.9455586 58.7855867 38.8232592 58.5958246 38.6330157 58.4602802 38.456361 58.3111815 38.2661175 58.1891915 38.0351076 58.1078649 37.8040977 58.0536472 37.5323213 58.0129839 37.3149001 58.0129839 37.0295349 58.0129839 32.2462702 59.138002 32.2462702 59.138002 36.9887684 59.138002 37.3149001 59.2328831 37.627443 59.3684274 37.8992194 59.5581895 38.0894629 59.7886149 38.2661175 60.0597036 38.4020057 60.3307923 38.4971275 60.6967621 38.5378939 61.0220685 38.4971275 61.347375 38.4020057 61.6184637 38.2661175 61.8488891 38.0894629 62.0250968 37.8992194 62.1199778 37.627443 62.2148589 37.3149001 62.2555222 36.9887684 62.2555222 32.2462702 63.4076492 32.2462702 63.4076492 37.0295349 63.4076492 37.3149001 63.3534315 37.5323213 63.2585504 37.8040977 63.1772238 38.0351076 63.0823427 38.2661175 62.9467984 38.456361 62.811254 38.6330157 62.6214919 38.8232592 62.4452843 38.9455586 62.2148589 39.0950356 61.9844335 39.2309238 61.7540081 39.3124567 61.5235827 39.4075784 61.252494 39.4619337 60.9678508 39.5027002"></polygon>
                <path d="M69.439373,39.4075784 L67.7721774,36.3908604 L66.4167339,36.3908604 L66.4167339,39.4075784 L65.2781613,39.4075784 L65.2781613,32.2462702 L68.1923649,32.2462702 L68.7074335,32.2462702 L69.1547298,32.3821584 L69.5749173,32.5588131 L69.8866694,32.789823 L70.1713125,33.1159547 L70.3475202,33.4828529 L70.4830645,33.8905175 L70.4830645,34.2981821 L70.4830645,34.6650802 L70.4017379,35.0319783 L70.2526391,35.3037548 L70.0764315,35.5755312 L69.8866694,35.8065411 L69.6155806,35.9831958 L69.3444919,36.1326728 L69.0191855,36.2142057 L70.7677077,39.4075784 L69.439373,39.4075784 Z M68.0839294,33.1838988 L66.4167339,33.1838988 L66.4167339,35.4260541 L68.382127,35.4260541 L68.6125524,35.3309324 L68.8429778,35.2493995 L69.0191855,35.1542777 L69.1547298,34.9776231 L69.2902742,34.7873796 L69.2902742,34.5563696 L69.2902742,34.2845932 L69.2902742,34.0535833 L69.2902742,33.8225734 L69.127621,33.700274 L68.9920766,33.5236193 L68.815869,33.3877311 L68.5854435,33.2926094 L68.3550181,33.2926094 L68.0839294,33.1838988 Z" id="Shape" fill="#2E2E2D" fill-rule="nonzero"></path>
                <path d="M76.569006,39.4075784 L76.0132742,38.0486964 L73.0448528,38.0486964 L72.5297843,39.4075784 L71.3098851,39.4075784 L74.0207722,32.1919149 L74.9424738,32.1919149 L77.6533609,39.4075784 L76.569006,39.4075784 Z M74.5493952,33.8769286 L73.4108226,37.0838902 L75.7015222,37.0838902 L74.5493952,33.8769286 Z" id="Shape" fill="#2E2E2D" fill-rule="nonzero"></path>
                <polygon id="Path" fill="#2E2E2D" fill-rule="nonzero" points="83.4682137 39.4619337 79.9847238 34.379715 79.9847238 39.4619337 78.8597056 39.4619337 78.8597056 32.2462702 79.8898427 32.2462702 83.3733327 37.3149001 83.3733327 32.2462702 84.5254597 32.2462702 84.5254597 39.4619337"></polygon>
                <polygon id="Path" fill="#2E2E2D" fill-rule="nonzero" points="88.9577601 39.5027002 88.6731169 39.5027002 88.4020282 39.4619337 88.1309395 39.4075784 87.8462964 39.3124567 87.6294254 39.1765685 87.399 39.0406803 87.1685746 38.9047921 86.9788125 38.7281374 86.7077238 38.456361 86.5315161 38.1709958 86.4366351 37.8584529 86.341754 37.5323213 86.246873 36.7577585 86.246873 35.8473076 86.246873 34.8960901 86.341754 34.1622939 86.4366351 33.7953957 86.5315161 33.5236193 86.7077238 33.1974876 86.9788125 32.9664777 87.1685746 32.789823 87.399 32.5995795 87.6294254 32.5180466 87.8462964 32.3821584 88.1309395 32.2870367 88.4020282 32.2462702 88.6731169 32.1919149 88.9577601 32.1919149 89.2695121 32.1919149 89.5948185 32.2462702 89.8659073 32.3278031 90.136996 32.4229249 90.3674214 32.5180466 90.5978468 32.6947013 90.8282722 32.8305895 91.0586976 33.020833 90.2860948 33.7953957 90.0014516 33.5236193 89.7303629 33.3333758 89.5406008 33.2382541 89.3643931 33.1974876 89.174631 33.1567212 88.9577601 33.1567212 88.6324536 33.1974876 88.3071472 33.2926094 88.0767218 33.4284976 87.8462964 33.6051522 87.710752 33.7410404 87.6294254 33.9312839 87.5345444 34.1079386 87.4803266 34.3389485 87.399 34.9368566 87.399 35.8473076 87.399 36.7577585 87.4803266 37.3556666 87.5345444 37.5866765 87.6294254 37.7633312 87.710752 37.9535747 87.8462964 38.0894629 88.0767218 38.2661175 88.3071472 38.4020057 88.6324536 38.4971275 88.9577601 38.5378939 89.174631 38.4971275 89.3643931 38.4971275 89.5406008 38.456361 89.7303629 38.3612393 90.0014516 38.1709958 90.2860948 37.8992194 91.0586976 38.6737821 90.8282722 38.8640256 90.5978468 38.9999138 90.3674214 39.135802 90.136996 39.2716902 89.8659073 39.366812 89.5948185 39.4619337 89.2695121 39.5027002"></polygon>
                <polygon id="Path" fill="#2E2E2D" fill-rule="nonzero" points="92.6174577 39.4619337 92.6174577 32.2462702 97.4157278 32.2462702 97.4157278 33.2382541 93.7424758 33.2382541 93.7424758 35.3445212 96.9142137 35.3445212 96.9142137 36.3093274 93.7424758 36.3093274 93.7424758 38.456361 97.4157278 38.456361 97.4157278 39.4619337"></polygon>
                <polygon id="Path" fill="#2E2E2D" fill-rule="nonzero" points="106.049903 38.6737821 105.873696 38.8640256 105.64327 39.0406803 105.412845 39.1765685 105.141756 39.2716902 104.911331 39.366812 104.586024 39.4619337 104.314935 39.5027002 103.989629 39.5027002 103.71854 39.5027002 103.447452 39.4619337 103.162808 39.4075784 102.945937 39.3124567 102.661294 39.1765685 102.430869 39.0406803 102.254661 38.9047921 102.024236 38.7281374 101.79381 38.456361 101.617603 38.1709958 101.468504 37.8584529 101.387177 37.5323213 101.33296 36.7577585 101.292296 35.8473076 101.33296 34.8960901 101.387177 34.1622939 101.468504 33.7953957 101.617603 33.5236193 101.79381 33.1974876 102.024236 32.9664777 102.254661 32.789823 102.430869 32.5995795 102.661294 32.5180466 102.89172 32.3821584 103.162808 32.2870367 103.447452 32.2462702 103.71854 32.1919149 103.989629 32.1919149 104.355599 32.1919149 104.721569 32.2462702 105.006212 32.3278031 105.2773 32.4229249 105.548389 32.5588131 105.778815 32.6947013 106.049903 32.9257112 106.280329 33.1567212 105.507726 33.8769286 105.182419 33.5643858 104.81645 33.3333758 104.680905 33.2926094 104.45048 33.1974876 104.274272 33.1974876 103.989629 33.1567212 103.677877 33.1974876 103.393234 33.2926094 103.122145 33.4284976 102.89172 33.6051522 102.756175 33.7410404 102.661294 33.9312839 102.579968 34.1079386 102.52575 34.3389485 102.485087 34.9368566 102.430869 35.8473076 102.485087 36.7577585 102.52575 37.3556666 102.579968 37.5866765 102.661294 37.7633312 102.756175 37.9535747 102.89172 38.0894629 103.122145 38.2661175 103.393234 38.4020057 103.677877 38.4971275 103.989629 38.5378939 104.355599 38.4971275 104.680905 38.4020057 104.951994 38.2253511 105.236637 38.0351076 105.412845 37.7633312 105.507726 37.4915548 105.548389 37.2197784 105.602607 36.8936467 105.602607 36.4859821 103.989629 36.4859821 103.989629 35.5755312 106.741179 35.5755312 106.741179 36.6218703 106.700516 37.2605449 106.592081 37.8040977 106.510754 38.0351076 106.37521 38.2661175 106.239665 38.4971275"></polygon>
                <path d="M112.501815,39.4075784 L110.902391,36.3365051 L109.546948,36.3365051 L109.546948,39.4075784 L108.435484,39.4075784 L108.435484,32.2462702 L111.363242,32.2462702 L111.864756,32.2462702 L112.325607,32.3821584 L112.73224,32.5588131 L113.057546,32.789823 L113.328635,33.1159547 L113.518397,33.4828529 L113.653942,33.8905175 L113.653942,34.2981821 L113.653942,34.6650802 L113.55906,35.0319783 L113.464179,35.3037548 L113.287972,35.5755312 L113.057546,35.8065411 L112.786458,35.9831958 L112.501815,36.1326728 L112.190063,36.2142057 L113.857258,39.4075784 L112.501815,39.4075784 Z M111.146371,33.1838988 L109.519839,33.1838988 L109.519839,35.4260541 L111.485232,35.4260541 L111.715657,35.3309324 L111.946083,35.2493995 L112.135845,35.1542777 L112.312052,34.9776231 L112.406933,34.7873796 L112.501815,34.5563696 L112.501815,34.1079386 L112.406933,33.8769286 L112.312052,33.700274 L112.135845,33.5236193 L111.946083,33.3877311 L111.715657,33.2926094 L111.485232,33.2926094 L111.146371,33.1838988 Z" id="Shape" fill="#2E2E2D" fill-rule="nonzero"></path>
                <path d="M119.766992,38.7281374 L119.536567,38.9047921 L119.360359,39.0406803 L119.129933,39.1765685 L118.858845,39.3124567 L118.628419,39.4075784 L118.343776,39.4075784 L118.072687,39.4075784 L117.476292,39.4075784 L117.205204,39.4075784 L116.934115,39.4075784 L116.649472,39.3124567 L116.419046,39.1765685 L116.202175,39.0406803 L116.012413,38.9047921 L115.781988,38.7281374 L115.551562,38.456361 L115.375355,38.1709958 L115.23981,37.8584529 L115.212702,37.5323213 L115.117821,36.7577585 L115.117821,34.8825013 L115.212702,34.1622939 L115.307583,33.7953957 L115.443127,33.5236193 L115.619335,33.1974876 L115.84976,32.9664777 L116.080185,32.789823 L116.269948,32.5995795 L116.486819,32.5180466 L116.717244,32.3821584 L117.001887,32.2870367 L117.272976,32.2870367 L117.544065,32.2870367 L118.14046,32.2870367 L118.411548,32.2870367 L118.696192,32.2870367 L118.926617,32.3821584 L119.197706,32.5180466 L119.428131,32.5995795 L119.604339,32.789823 L119.834764,32.9664777 L120.06519,33.1974876 L120.254952,33.5236193 L120.390496,33.7953957 L120.471823,34.1622939 L120.471823,34.8825013 L120.471823,36.7577585 L120.471823,37.5323213 L120.390496,37.8584529 L120.254952,38.1709958 L120.06519,38.456361 L119.766992,38.7281374 Z M118.899508,33.6051522 L118.669083,33.4284976 L118.397994,33.2926094 L118.113351,33.1974876 L117.747381,33.1974876 L117.435629,33.1974876 L117.150986,33.2926094 L116.879897,33.4284976 L116.649472,33.6051522 L116.513927,33.7410404 L116.419046,33.9312839 L116.33772,34.1079386 L116.33772,34.3389485 L116.33772,34.9368566 L116.33772,35.8473076 L116.33772,36.7577585 L116.33772,37.3556666 L116.33772,37.5866765 L116.419046,37.7633312 L116.513927,37.9535747 L116.649472,38.0894629 L116.879897,38.2661175 L117.150986,38.4020057 L117.435629,38.4971275 L117.747381,38.4971275 L118.113351,38.4971275 L118.397994,38.4020057 L118.669083,38.2661175 L118.899508,38.0894629 L119.035052,37.9535747 L119.129933,37.7633312 L119.129933,37.5866765 L119.224815,37.3556666 L119.224815,36.7577585 L119.224815,35.8473076 L119.224815,34.9368566 L119.224815,34.3389485 L119.129933,34.1079386 L119.129933,33.9312839 L119.035052,33.7410404 L118.899508,33.6051522 Z" id="Shape" fill="#2E2E2D" fill-rule="nonzero"></path>
                <polygon id="Path" fill="#2E2E2D" fill-rule="nonzero" points="124.795687 39.5027002 124.470381 39.5027002 124.199292 39.4619337 123.968867 39.4075784 123.697778 39.3124567 123.467353 39.2309238 123.236927 39.0950356 123.047165 38.9455586 122.870958 38.8232592 122.681196 38.6330157 122.504988 38.456361 122.410107 38.2661175 122.274562 38.0351076 122.179681 37.8040977 122.139018 37.5323213 122.0848 37.3149001 122.0848 37.0295349 122.0848 32.2462702 123.236927 32.2462702 123.236927 36.9887684 123.236927 37.3149001 123.331808 37.627443 123.467353 37.8992194 123.64356 38.0894629 123.873986 38.2661175 124.145075 38.4020057 124.429718 38.4971275 124.795687 38.5378939 125.10744 38.4971275 125.432746 38.4020057 125.663171 38.2661175 125.893597 38.0894629 126.069804 37.8992194 126.218903 37.627443 126.30023 37.3149001 126.354448 36.9887684 126.354448 32.2462702 127.49302 32.2462702 127.49302 37.0295349 127.452357 37.3149001 127.452357 37.5323213 127.343921 37.8040977 127.262595 38.0351076 127.181268 38.2661175 127.032169 38.456361 126.855962 38.6330157 126.720417 38.8232592 126.530655 38.9455586 126.30023 39.0950356 126.069804 39.2309238 125.852933 39.3124567 125.56829 39.4075784 125.337865 39.4619337 125.066776 39.5027002"></polygon>
                <path d="M132.196409,36.6898144 L130.502105,36.6898144 L130.502105,39.4075784 L129.363532,39.4075784 L129.363532,32.2462702 L132.196409,32.2462702 L132.752141,32.2462702 L133.212992,32.3821584 L133.619625,32.5588131 L133.985595,32.8441783 L134.256683,33.1567212 L134.446446,33.5236193 L134.568435,33.9312839 L134.568435,34.3933038 L134.568435,34.8417349 L134.446446,35.2629883 L134.256683,35.6298864 L133.985595,35.9424293 L133.619625,36.2142057 L133.212992,36.4044492 L132.752141,36.5403374 L132.196409,36.6898144 Z M132.196409,33.3061982 L130.502105,33.3061982 L130.502105,35.6842417 L132.426835,35.6842417 L132.697923,35.6027088 L132.928349,35.5075871 L133.118111,35.3716989 L133.253655,35.2358106 L133.3892,35.0048007 L133.484081,34.7737908 L133.484081,34.230238 L133.3892,33.9720504 L133.253655,33.7410404 L133.118111,33.5643858 L132.928349,33.4284976 L132.697923,33.3333758 L132.426835,33.3333758 L132.196409,33.3061982 Z" id="Shape" fill="#2E2E2D" fill-rule="nonzero"></path>
            </g>
        </g>
    </g>
</svg>