<?xml version="1.0" encoding="UTF-8"?>
<svg width="20px" height="20px" viewBox="0 0 20 20" version="1.1" xmlns="http://www.w3.org/2000/svg" xmlns:xlink="http://www.w3.org/1999/xlink">
    <title>D059A9D9-3688-4E84-B474-CBF0D56277A5</title>
    <g id="ðŸŽ¨-Styleguide" stroke="none" stroke-width="1" fill="none" fill-rule="evenodd">
        <g id="00-01-Styleguide" transform="translate(-771.000000, -5121.000000)" fill="#fff" fill-rule="nonzero">
            <g id="Icon" transform="translate(771.000000, 5121.000000)">
                <path d="M14,13 C15.3062521,13 16.4175144,13.8348501 16.8293257,15.0000889 L17,15 C17.5522847,15 18,15.4477153 18,16 C18,16.5522847 17.5522847,17 17,17 L16.8289758,17.0009007 C16.4168852,18.1656226 15.3058822,19 14,19 C12.6941178,19 11.5831148,18.1656226 11.1710242,17.0009007 L3,17 C2.44771525,17 2,16.5522847 2,16 C2,15.4477153 2.44771525,15 3,15 L11.1706743,15.0000889 C11.5824856,13.8348501 12.6937479,13 14,13 Z M7,7 C8.30625206,7 9.41751442,7.8348501 9.82932572,9.00008893 L17,9 C17.5522847,9 18,9.44771525 18,10 C18,10.5522847 17.5522847,11 17,11 L9.82897577,11.0009007 C9.41688515,12.1656226 8.30588222,13 7,13 C5.69411778,13 4.58311485,12.1656226 4.17102423,11.0009007 L3,11 C2.44771525,11 2,10.5522847 2,10 C2,9.44771525 2.44771525,9 3,9 L4.17067428,9.00008893 C4.58248558,7.8348501 5.69374794,7 7,7 Z M14,1 C15.3062521,1 16.4175144,1.8348501 16.8293257,3.00008893 L17,3 C17.5522847,3 18,3.44771525 18,4 C18,4.55228475 17.5522847,5 17,5 L16.8289758,5.00090072 C16.4168852,6.16562257 15.3058822,7 14,7 C12.6941178,7 11.5831148,6.16562257 11.1710242,5.00090072 L3,5 C2.44771525,5 2,4.55228475 2,4 C2,3.44771525 2.44771525,3 3,3 L11.1706743,3.00008893 C11.5824856,1.8348501 12.6937479,1 14,1 Z" id="ðŸŽ-Color"></path>
            </g>
        </g>
    </g>
</svg>