<?xml version="1.0" encoding="UTF-8"?>
<svg width="20px" height="20px" viewBox="0 0 20 20" version="1.1" xmlns="http://www.w3.org/2000/svg" xmlns:xlink="http://www.w3.org/1999/xlink">
    <title>373A13FC-FC4B-4DE7-BBEC-E1840FAD6D95</title>
    <g id="ðŸŽ¨-Styleguide" stroke="none" stroke-width="1" fill="none" fill-rule="evenodd">
        <g id="00-01-Styleguide" transform="translate(-267.000000, -5121.000000)" fill="#fff" fill-rule="nonzero">
            <g id="Icon" transform="translate(267.000000, 5121.000000)">
                <path d="M18,0 L18,20 L2,20 L2,0 L18,0 Z M16,2 L4,2 L4,18 L16,18 L16,2 Z M14,14 L14,16 L10,16 L10,14 L14,14 Z M11,10 L11,12 L6,12 L6,10 L11,10 Z M13,7 L13,9 L6,9 L6,7 L13,7 Z M12,4 L12,6 L6,6 L6,4 L12,4 Z" id="ðŸŽ-Color"></path>
            </g>
        </g>
    </g>
</svg>