<?xml version="1.0" encoding="UTF-8"?>
<svg width="20px" height="20px" viewBox="0 0 20 20" version="1.1" xmlns="http://www.w3.org/2000/svg" xmlns:xlink="http://www.w3.org/1999/xlink">
    <title>66005656-C31F-4E6F-975D-C81A89BA294A</title>
    <g id="ðŸŽ¨-Styleguide" stroke="none" stroke-width="1" fill="none" fill-rule="evenodd">
        <g id="00-09-Styleguide" transform="translate(-555.000000, -5236.000000)" fill="#ffffff">
            <g id="Group-9" transform="translate(87.000000, 5180.000000)">
                <g id="Icon" transform="translate(468.000000, 56.000000)">
                    <path d="M10,4 C10.5522847,4 11,4.44771525 11,5 L11,9 L15,9 C15.5522847,9 16,9.44771525 16,10 C16,10.5522847 15.5522847,11 15,11 L11,11 L11,15 C11,15.5522847 10.5522847,16 10,16 C9.44771525,16 9,15.5522847 9,15 L9,11 L5,11 C4.44771525,11 4,10.5522847 4,10 C4,9.44771525 4.44771525,9 5,9 L9,9 L9,5 C9,4.44771525 9.44771525,4 10,4 Z" id="ðŸŽ-Color"></path>
                </g>
            </g>
        </g>
    </g>
</svg>