<?xml version="1.0" encoding="UTF-8"?>
<svg width="20px" height="20px" viewBox="0 0 20 20" version="1.1" xmlns="http://www.w3.org/2000/svg" xmlns:xlink="http://www.w3.org/1999/xlink">
    <title>8D550E47-02ED-49DA-8A65-F93BFC3092EF</title>
    <g id="ðŸŽ¨-Styleguide" stroke="none" stroke-width="1" fill="none" fill-rule="evenodd">
        <g id="00-09-Styleguide" transform="translate(-735.000000, -5272.000000)">
            <rect fill="#FFFFFF" x="0" y="0" width="1440" height="11365"></rect>
            <g id="Group-9" transform="translate(87.000000, 5180.000000)" fill="#6A7098">
                <g id="Icon" transform="translate(648.000000, 92.000000)">
                    <path d="M18,0 L18,20 L2,20 L2,0 L18,0 Z M16,2 L4,2 L4,18 L16,18 L16,2 Z M11,4.5 L11,6 L13,6 L13,8 L8.5,8 L8.5,9 L11.5,9 C12.5543618,9 13.4181651,9.81587779 13.4945143,10.8507377 L13.5,11 L13.5,12 C13.5,13.0543618 12.6841222,13.9181651 11.6492623,13.9945143 L11.5,14 L11,14 L11,15.5 L9,15.5 L9,14 L7,14 L7,12 L11.5,12 L11.5,11 L8.5,11 C7.4456382,11 6.58183488,10.1841222 6.50548574,9.14926234 L6.5,9 L6.5,8 C6.5,6.9456382 7.31587779,6.08183488 8.35073766,6.00548574 L8.5,6 L9,6 L9,4.5 L11,4.5 Z" id="ðŸŽ-Color"></path>
                </g>
            </g>
        </g>
    </g>
</svg>