<?xml version="1.0" encoding="UTF-8"?>
<svg width="20px" height="20px" viewBox="0 0 20 20" version="1.1" xmlns="http://www.w3.org/2000/svg" xmlns:xlink="http://www.w3.org/1999/xlink">
    <title>208429E9-7B89-4641-82BB-283FD041D7DA</title>
    <g id="ðŸŽ¨-Styleguide" stroke="none" stroke-width="1" fill="none" fill-rule="evenodd">
        <g id="00-01-Styleguide" transform="translate(-699.000000, -5121.000000)" fill="#fff">
            <g id="Icon" transform="translate(699.000000, 5121.000000)">
                <path d="M17,1 C18.1045695,1 19,1.8954305 19,3 L19,17 C19,18.1045695 18.1045695,19 17,19 L3,19 C1.8954305,19 1,18.1045695 1,17 L1,3 C1,1.8954305 1.8954305,1 3,1 L17,1 Z M7,3 L3,3 L3,17 L5,17 L5,13 L6,13 L6,17 L7,17 L7,13 L9,13 L9,17 L10,17 L10,13 L11,13 L11,17 L12,17 L12,13 L13,13 L13,17 L14,17 L14,13 L15,13 L15,17 L17,17 L17,3 L13,3 L13,9 L10,8 L7,9 L7,3 Z" id="ðŸŽ-Color"></path>
            </g>
        </g>
    </g>
</svg>