<?xml version="1.0" encoding="UTF-8"?>
<svg width="74px" height="13px" viewBox="0 0 74 13" version="1.1" xmlns="http://www.w3.org/2000/svg" xmlns:xlink="http://www.w3.org/1999/xlink">
    <title>RACloud</title>
    <g id="ðŸŽ-Symbols" stroke="none" stroke-width="1" fill="none" fill-rule="evenodd">
        <g id="UI/Components/Header" transform="translate(-75.000000, -30.000000)" fill="#FFFFFF" fill-rule="nonzero">
            <g id="Group" transform="translate(16.000000, 20.000000)">
                <path d="M66.5536612,22.8377029 C66.898725,22.8377029 67.1413479,22.6997503 67.2815301,22.4238452 C67.4217122,22.1479401 67.3947541,21.8531003 67.2006557,21.5393258 L67.2006557,21.5393258 L64.7299454,17.5488452 L64.9038251,17.4656679 C65.4510747,17.1816479 65.8930612,16.8023629 66.2297848,16.3278129 L66.3676503,16.1186017 C66.7181056,15.5451519 66.8933333,14.8905535 66.8933333,14.1548065 C66.8933333,13.3649605 66.7181056,12.6724927 66.3676503,12.0774032 C66.0171949,11.4823138 65.5292532,11.0143571 64.9038251,10.6735331 C64.2783971,10.3327091 63.5613115,10.1622971 62.7525683,10.1622971 L62.7525683,10.1622971 L59.8410929,10.1622971 C59.6038616,10.1622971 59.4043716,10.2407407 59.242623,10.397628 C59.0808743,10.5545152 59,10.7573866 59,11.0062422 L59,11.0062422 L59,21.9937578 C59,22.2317936 59.0808743,22.43196 59.242623,22.5942572 C59.4043716,22.7565543 59.6038616,22.8377029 59.8410929,22.8377029 C60.0891075,22.8377029 60.2912933,22.7565543 60.4476503,22.5942572 C60.6040073,22.43196 60.6821858,22.2317936 60.6821858,21.9937578 L60.6821858,21.9937578 L60.6821858,17.9525593 L62.7525683,17.9525593 L62.7525683,17.9525593 L63.0507923,17.9454588 L65.8257923,22.43196 C65.8904918,22.5374532 65.965806,22.6216448 66.051735,22.684535 L66.1412022,22.7403246 C66.2652095,22.8052434 66.4026958,22.8377029 66.5536612,22.8377029 Z M62.7525683,16.3945069 L60.6821858,16.3945069 L60.6821858,11.7203496 L62.7525683,11.7203496 C63.2485974,11.7203496 63.6853188,11.8231377 64.0627322,12.0287141 C64.4401457,12.2342905 64.7366849,12.5210154 64.9523497,12.8888889 C65.1680146,13.2567624 65.275847,13.6787349 65.275847,14.1548065 C65.275847,14.5875988 65.1680146,14.974407 64.9523497,15.315231 C64.7366849,15.6560549 64.4401457,15.9211402 64.0627322,16.1104869 C63.6853188,16.2998335 63.2485974,16.3945069 62.7525683,16.3945069 L62.7525683,16.3945069 Z M77.9084153,22.8377029 C78.2211293,22.8377029 78.4556648,22.71598 78.6120219,22.4725343 C78.7683789,22.2290886 78.7872495,21.9558885 78.6686339,21.6529338 L78.6686339,21.6529338 L74.1073224,10.7303371 C73.9671403,10.3516438 73.7029508,10.1622971 73.3147541,10.1622971 C72.9481239,10.1622971 72.6839344,10.3516438 72.5221858,10.7303371 L72.5221858,10.7303371 L67.9770492,21.6204744 C67.8476503,21.9126092 67.8638251,22.1885144 68.0255738,22.4481898 C68.1873224,22.7078652 68.4191621,22.8377029 68.7210929,22.8377029 C68.8720583,22.8377029 69.0203279,22.7944236 69.1659016,22.7078652 C69.3114754,22.6213067 69.4220036,22.491469 69.4974863,22.3183521 L69.4974863,22.3183521 L70.4234973,20.0461923 L76.2201639,20.0461923 L77.1320219,22.3183521 C77.1805464,22.4400749 77.2518169,22.5420178 77.3458333,22.6241807 L77.4474317,22.6997503 C77.5930055,22.7917187 77.7466667,22.8377029 77.9084153,22.8377029 Z M75.6601093,18.650437 L70.9926503,18.650437 L73.345082,12.8797597 L75.6601093,18.650437 Z M90.9938798,23 C91.7271403,23 92.4253552,22.8809821 93.0885246,22.6429463 C93.751694,22.4049105 94.3744262,22.0532667 94.9567213,21.588015 C95.0429872,21.5014565 95.1076867,21.4067832 95.1508197,21.303995 C95.1939526,21.2012068 95.2155191,21.0957137 95.2155191,20.9875156 C95.2155191,20.7494798 95.1508197,20.5628381 95.0214208,20.4275905 C94.8920219,20.2923429 94.732969,20.2166042 94.5442623,20.2003745 C94.3555556,20.1841448 94.164153,20.2463587 93.9700546,20.3870162 C93.5171585,20.7224303 93.0453916,20.9848107 92.5547541,21.1741573 C92.0641166,21.363504 91.5438251,21.4581773 90.9938798,21.4581773 C90.3576685,21.4581773 89.7591985,21.3310445 89.1984699,21.076779 C88.6377413,20.8225135 88.144408,20.4681648 87.7184699,20.0137328 C87.2925319,19.5593009 86.9609472,19.0318352 86.7237158,18.4313358 C86.4864845,17.8308365 86.3678689,17.1843529 86.3678689,16.4918851 C86.3678689,15.8102372 86.4864845,15.1691635 86.7237158,14.5686642 C86.9609472,13.9681648 87.2925319,13.4406991 87.7184699,12.9862672 C88.144408,12.5318352 88.6377413,12.1747815 89.1984699,11.9151061 C89.7591985,11.6554307 90.3576685,11.525593 90.9938798,11.525593 C91.6947905,11.525593 92.2582149,11.6175614 92.684153,11.8014981 C93.1100911,11.9854349 93.5225501,12.2505202 93.9215301,12.5967541 C94.1156284,12.7482314 94.3151184,12.8158552 94.52,12.7996255 C94.7248816,12.7833958 94.9001093,12.7076571 95.0456831,12.5724095 C95.1912568,12.4371619 95.2640437,12.2667499 95.2640437,12.0611735 C95.2640437,11.9637953 95.2559563,11.8799417 95.2397814,11.809613 C95.2236066,11.7392842 95.1912568,11.6689555 95.1427322,11.5986267 C95.0942077,11.528298 95.0268124,11.4606742 94.9405464,11.3957553 C94.3366849,10.8980441 93.7355191,10.5409904 93.1370492,10.3245943 C92.5385792,10.1081981 91.8241894,10 90.9938798,10 C90.1096539,10 89.2901275,10.167707 88.5353005,10.5031211 C87.7804736,10.8385352 87.12,11.301082 86.5538798,11.8907615 C85.9877596,12.4804411 85.5456466,13.167499 85.227541,13.9519351 C84.9094353,14.7363712 84.7503825,15.5830212 84.7503825,16.4918851 C84.7503825,17.4115689 84.9094353,18.2663337 85.227541,19.0561798 C85.5456466,19.8460258 85.9877596,20.5357886 86.5538798,21.1254682 C87.12,21.7151477 87.7831694,22.1749896 88.543388,22.5049938 C89.3036066,22.8349979 90.1204372,23 90.9938798,23 Z M99.8738798,22.8377029 C100.197377,22.8377029 100.461566,22.7619642 100.666448,22.6104869 C100.87133,22.4590096 100.97377,22.264253 100.97377,22.0262172 C100.97377,21.7881814 100.906375,21.5934249 100.771585,21.4419476 C100.636794,21.2904702 100.461566,21.2147316 100.245902,21.2147316 L100.245902,21.2147316 L99.8415301,21.2147316 C99.6042987,21.2147316 99.4102004,21.0848939 99.259235,20.8252185 C99.1082696,20.5655431 99.0327869,20.2355389 99.0327869,19.835206 L99.0327869,19.835206 L99.0327869,10.9737828 C99.0327869,10.735747 98.9573042,10.5409904 98.8063388,10.3895131 C98.6553734,10.2380358 98.461275,10.1622971 98.2240437,10.1622971 C97.9868124,10.1622971 97.792714,10.2380358 97.6417486,10.3895131 C97.4907832,10.5409904 97.4153005,10.735747 97.4153005,10.9737828 L97.4153005,10.9737828 L97.4153005,19.835206 C97.4153005,20.4194757 97.5177413,20.9361215 97.722623,21.3851436 C97.9275046,21.8341656 98.2132605,22.1885144 98.5798907,22.4481898 C98.9465209,22.7078652 99.3670674,22.8377029 99.8415301,22.8377029 L99.8415301,22.8377029 L99.8738798,22.8377029 Z M106.602623,22.9026217 C107.476066,22.9026217 108.247067,22.7105701 108.915628,22.3264669 C109.584189,21.9423637 110.107177,21.4121931 110.48459,20.7359551 C110.862004,20.059717 111.05071,19.2833958 111.05071,18.4069913 C111.05071,17.519767 110.859308,16.7380358 110.476503,16.0617978 C110.093698,15.3855597 109.568015,14.8553891 108.899454,14.4712859 C108.230893,14.0871827 107.465282,13.8951311 106.602623,13.8951311 C105.72918,13.8951311 104.958179,14.0871827 104.289617,14.4712859 C103.621056,14.8553891 103.095373,15.3855597 102.712568,16.0617978 C102.329763,16.7380358 102.138361,17.519767 102.138361,18.4069913 C102.138361,19.2833958 102.329763,20.059717 102.712568,20.7359551 C103.095373,21.4121931 103.621056,21.9423637 104.289617,22.3264669 C104.958179,22.7105701 105.72918,22.9026217 106.602623,22.9026217 Z M106.602623,21.4419476 C106.041894,21.4419476 105.545865,21.3121099 105.114536,21.0524345 C104.683206,20.7927591 104.343534,20.4357054 104.095519,19.9812734 C103.847505,19.5268414 103.723497,19.0020807 103.723497,18.4069913 C103.723497,17.8119018 103.847505,17.2844361 104.095519,16.8245943 C104.343534,16.3647524 104.683206,16.0049938 105.114536,15.7453184 C105.545865,15.4856429 106.041894,15.3558052 106.602623,15.3558052 C107.163352,15.3558052 107.659381,15.4856429 108.09071,15.7453184 C108.52204,16.0049938 108.859016,16.3647524 109.101639,16.8245943 C109.344262,17.2844361 109.465574,17.8119018 109.465574,18.4069913 C109.465574,19.0020807 109.344262,19.5268414 109.101639,19.9812734 C108.859016,20.4357054 108.52204,20.7927591 108.09071,21.0524345 C107.659381,21.3121099 107.163352,21.4419476 106.602623,21.4419476 Z M117.229508,22.9188514 C117.951985,22.9188514 118.596284,22.7619642 119.162404,22.4481898 C119.445464,22.2913025 119.698871,22.1060133 119.922623,21.8923221 L119.979235,21.8345037 L119.979235,22.0099875 C119.979235,22.2004161 120.029269,22.3648772 120.129338,22.5033708 L120.21377,22.602372 C120.370128,22.7592593 120.566922,22.8377029 120.804153,22.8377029 C121.052168,22.8377029 121.251658,22.7592593 121.402623,22.602372 C121.553588,22.4454848 121.629071,22.2480233 121.629071,22.0099875 L121.629071,22.0099875 L121.629071,14.7715356 C121.629071,14.52268 121.553588,14.3225135 121.402623,14.1710362 C121.251658,14.0195589 121.052168,13.9438202 120.804153,13.9438202 C120.566922,13.9438202 120.370128,14.0195589 120.21377,14.1710362 C120.057413,14.3225135 119.979235,14.52268 119.979235,14.7715356 L119.979235,14.7715356 L119.979235,19.3483146 C119.979235,19.7378277 119.871403,20.0894715 119.655738,20.4032459 C119.440073,20.7170204 119.151621,20.965876 118.790383,21.1498127 C118.429144,21.3337495 118.016685,21.4257179 117.553005,21.4257179 C117.06776,21.4257179 116.631038,21.3310445 116.242842,21.1416979 C115.854645,20.9523512 115.547322,20.6602164 115.320874,20.2652934 C115.094426,19.8703704 114.981202,19.3699542 114.981202,18.7640449 L114.981202,18.7640449 L114.981202,14.7715356 C114.981202,14.5334998 114.903024,14.3360383 114.746667,14.1791511 C114.59031,14.0222638 114.393515,13.9438202 114.156284,13.9438202 C113.919053,13.9438202 113.722259,14.0222638 113.565902,14.1791511 C113.409545,14.3360383 113.331366,14.5334998 113.331366,14.7715356 L113.331366,14.7715356 L113.331366,18.7640449 C113.331366,19.6620891 113.501202,20.4194757 113.840874,21.0362047 C114.180546,21.6529338 114.644226,22.1208906 115.231913,22.4400749 C115.819599,22.7592593 116.485464,22.9188514 117.229508,22.9188514 Z M128.551913,22.9026217 C129.393005,22.9026217 130.147832,22.7051602 130.816393,22.3102372 C131.484954,21.9153142 132.016029,21.3770287 132.409617,20.6953808 C132.803206,20.0137328 133,19.2455264 133,18.3907615 L133,18.3907615 L133,10.9900125 C133,10.7411569 132.924517,10.5409904 132.773552,10.3895131 C132.622587,10.2380358 132.423097,10.1622971 132.175082,10.1622971 C131.937851,10.1622971 131.741056,10.2380358 131.584699,10.3895131 C131.428342,10.5409904 131.350164,10.7411569 131.350164,10.9900125 L131.350164,10.9900125 L131.350164,15.372035 C130.983534,14.917603 130.530638,14.5578444 129.991475,14.2927591 C129.452313,14.0276737 128.864627,13.8951311 128.228415,13.8951311 C127.441239,13.8951311 126.734936,14.0925926 126.109508,14.4875156 C125.48408,14.8824386 124.990747,15.4180191 124.629508,16.0942572 C124.26827,16.7704952 124.08765,17.5359967 124.08765,18.3907615 C124.08765,19.2455264 124.284444,20.0137328 124.678033,20.6953808 C125.071621,21.3770287 125.605392,21.9153142 126.279344,22.3102372 C126.953297,22.7051602 127.71082,22.9026217 128.551913,22.9026217 Z M128.551913,21.4419476 C128.01275,21.4419476 127.524809,21.3094049 127.088087,21.0443196 C126.651366,20.7792343 126.306302,20.4140658 126.052896,19.948814 C125.79949,19.4835622 125.672787,18.9642114 125.672787,18.3907615 C125.672787,17.8064919 125.79949,17.2871411 126.052896,16.8327091 C126.306302,16.3782772 126.651366,16.0185185 127.088087,15.7534332 C127.524809,15.4883479 128.01275,15.3558052 128.551913,15.3558052 C129.101858,15.3558052 129.592495,15.4883479 130.023825,15.7534332 C130.455155,16.0185185 130.794827,16.3782772 131.042842,16.8327091 C131.290856,17.2871411 131.414863,17.8064919 131.414863,18.3907615 C131.414863,18.9642114 131.290856,19.4835622 131.042842,19.948814 C130.794827,20.4140658 130.455155,20.7792343 130.023825,21.0443196 C129.592495,21.3094049 129.101858,21.4419476 128.551913,21.4419476 Z" id="RACloud"></path>
            </g>
        </g>
    </g>
</svg>