<?xml version="1.0" encoding="UTF-8"?>
<svg width="50px" height="36px" viewBox="0 0 50 36" version="1.1" xmlns="http://www.w3.org/2000/svg" xmlns:xlink="http://www.w3.org/1999/xlink">
    <title>99DE60B9-08C4-49A1-B44B-7D99F5B779B6</title>
    <defs>
        <filter id="filter-1">
            <feColorMatrix in="SourceGraphic" type="matrix" values="0 0 0 0 1.000000 0 0 0 0 1.000000 0 0 0 0 1.000000 0 0 0 1.000000 0"></feColorMatrix>
        </filter>
    </defs>
    <g id="🎨-Styleguide" stroke="none" stroke-width="1" fill="none" fill-rule="evenodd">
        <g id="00-09-Styleguide" transform="translate(-103.000000, -5656.000000)">
            <g id="Group-10" transform="translate(64.000000, 5516.000000)">
                <g id="Header" transform="translate(23.000000, 120.000000)">
                    <g id="Symbol" transform="translate(16.000000, 20.000000)" filter="url(#filter-1)">
                        <g id="RA-Logo" fill-rule="nonzero">
                            <path d="M10.7655502,26.3355705 L10.7009569,26.415302 L3.00717703,35.8816107 L8.66028708,26.753557 L8.70813397,26.6738255 C9.36124402,26.5530201 10.0239234,26.4322148 10.7009569,26.3331544 L10.7655502,26.3355705 Z" id="Path" fill="#D9471F"></path>
                            <path d="M39.4736842,23.0834899 C38.5709729,22.9401342 37.6483254,22.8096644 36.7057416,22.6920805 L25.1866029,8.49020134 L13.7033493,22.6268456 C12.7575758,22.7379866 11.8349282,22.8628188 10.9354067,23.0013423 L25.1866029,0 L39.4736842,23.0834899 Z" id="Path" fill="#D9471F"></path>
                            <path d="M47.3684211,35.8115436 L39.7488038,26.4249664 C40.4401914,26.5361074 41.1148325,26.6544966 41.7799043,26.7897987 L47.3684211,35.8115436 Z" id="Path" fill="#D9471F"></path>
                            <rect id="Rectangle" fill="#D9471F" x="22.5215311" y="15.4461745" width="2.3708134" height="2.39436242"></rect>
                            <rect id="Rectangle" fill="#D9471F" x="25.5334928" y="15.4461745" width="2.3708134" height="2.39436242"></rect>
                            <rect id="Rectangle" fill="#D9471F" x="22.5215311" y="18.4252349" width="2.3708134" height="2.39436242"></rect>
                            <rect id="Rectangle" fill="#D9471F" x="25.5334928" y="18.4252349" width="2.3708134" height="2.39436242"></rect>
                            <path d="M49.8971292,28.9642953 C47.25025,28.0261177 44.5345855,27.2990558 41.7751196,26.7897987 C41.1100478,26.6544966 40.4354067,26.5481879 39.7416268,26.4225503 C34.8478409,25.6477846 29.9008936,25.2664534 24.9473684,25.2821477 C20.1790386,25.2694651 15.4166085,25.6216136 10.7009569,26.3355705 C10.0095694,26.4467114 9.3277512,26.5602685 8.66028708,26.685906 C5.71685921,27.2057023 2.82044575,27.9677044 0,28.9642953 C3.10104095,27.0317178 6.45728476,25.5520807 9.96889952,24.569396 C10.8604466,24.3116779 11.7743222,24.0748993 12.7105263,23.8590604 C16.728051,22.9578402 20.8319454,22.5081266 24.9473684,22.5181208 C29.2656213,22.5064639 33.5705298,23.0026917 37.7751196,23.9967785 C38.708134,24.2238926 39.6204147,24.473557 40.5119617,24.7457718 C43.8137035,25.720004 46.9704715,27.1389344 49.8971292,28.9642953 L49.8971292,28.9642953 Z" id="Path" fill="#999999" opacity="0.6"></path>
                        </g>
                    </g>
                </g>
            </g>
        </g>
    </g>
</svg>