<?xml version="1.0" encoding="UTF-8"?>
<svg width="20px" height="20px" viewBox="0 0 20 20" version="1.1" xmlns="http://www.w3.org/2000/svg" xmlns:xlink="http://www.w3.org/1999/xlink">
    <title>F1DAEC51-2767-4C24-820C-F615AC18E3A2</title>
    <g id="Styleguide" stroke="none" stroke-width="1" fill="none" fill-rule="evenodd">
        <g transform="translate(-611.000000, -7702.000000)" fill="currentColor" id="Group-38">
            <g transform="translate(136.000000, 7495.000000)">
                <g id="search" transform="translate(475.000000, 207.000000)">
                    <path d="M11.5,1 C15.6421356,1 19,4.35786438 19,8.5 C19,12.6421356 15.6421356,16 11.5,16 C9.78985191,16 8.21338957,15.4276233 6.95173368,14.4639906 L2.70710678,18.7071068 C2.31658249,19.0976311 1.68341751,19.0976311 1.29289322,18.7071068 C0.932409257,18.3466228 0.904679722,17.7793918 1.20970461,17.3871006 L1.29289322,17.2928932 L5.53600944,13.0482663 C4.57237672,11.7866104 4,10.2101481 4,8.5 C4,4.35786438 7.35786438,1 11.5,1 Z M11.5,3 C8.46243388,3 6,5.46243388 6,8.5 C6,11.5375661 8.46243388,14 11.5,14 C14.5375661,14 17,11.5375661 17,8.5 C17,5.46243388 14.5375661,3 11.5,3 Z" id="Combined-Shape"></path>
                </g>
            </g>
        </g>
    </g>
</svg>
