<?xml version="1.0" encoding="UTF-8"?>
<svg width="20px" height="20px" viewBox="0 0 20 20" version="1.1" xmlns="http://www.w3.org/2000/svg" xmlns:xlink="http://www.w3.org/1999/xlink">
    <!-- Generator: Sketch 64 (93537) - https://sketch.com -->
    <title>setari</title>
    <desc>Created with Sketch.</desc>
    <g id="Styleguide" stroke="none" stroke-width="1" fill="none" fill-rule="evenodd">
        <g transform="translate(-403.000000, -8003.000000)" fill="#4C4F51" id="Group-86">
            <g transform="translate(0.000000, 3420.000000)">
                <g id="Group-85" transform="translate(136.000000, 4376.000000)">
                    <g id="Icon/Setari" transform="translate(267.000000, 207.000000)">
                        <path d="M10.8486702,9.68114477e-14 C11.2313761,9.68114477e-14 11.5648856,0.260669604 11.6573276,0.632043101 L12.065388,2.26916174 C12.7531574,2.45243788 13.4044762,2.72505407 14.006157,3.07382283 L15.4522383,2.20394658 C15.7802053,2.00671219 16.2003534,2.05821778 16.4709673,2.3288317 L17.6711683,3.52903267 C17.9417822,3.79964659 17.9932878,4.21979468 17.7960534,4.54776172 L16.9261772,5.99384304 C17.2749459,6.59552375 17.5475621,7.24684258 17.7308383,7.93461204 L19.3679569,8.34267242 C19.7393304,8.43511436 20,8.76862388 20,9.15132975 L20,10.8486702 C20,11.2313761 19.7393304,11.5648856 19.3679569,11.6573276 L17.7308383,12.065388 C17.5475621,12.7531574 17.2749459,13.4044762 16.9261772,14.006157 L17.7960534,15.4522383 C17.9932878,15.7802053 17.9417822,16.2003534 17.6711683,16.4709673 L16.4709673,17.6711683 C16.2003534,17.9417822 15.7802053,17.9932878 15.4522383,17.7960534 L14.006157,16.9261772 C13.4044762,17.2749459 12.7531574,17.5475621 12.065388,17.7308383 L11.6573276,19.3679569 C11.5648856,19.7393304 11.2313761,20 10.8486702,20 L9.15132975,20 C8.76862388,20 8.43511436,19.7393304 8.34267242,19.3679569 L7.93461204,17.7308383 C7.24684258,17.5475621 6.59552375,17.2749459 5.99384304,16.9261772 L4.54776172,17.7960534 C4.21979468,17.9932878 3.79964659,17.9417822 3.52903267,17.6711683 L2.3288317,16.4709673 C2.05821778,16.2003534 2.00671219,15.7802053 2.20394658,15.4522383 L3.07382283,14.006157 C2.72505407,13.4044762 2.45243788,12.7531574 2.26916174,12.065388 L0.632043101,11.6573276 C0.260669604,11.5648856 -2.81173017e-13,11.2313761 -2.81173017e-13,10.8486702 L-2.81173017e-13,9.15132975 C-2.81173017e-13,8.76862388 0.260669604,8.43511436 0.632043101,8.34267242 L2.26916174,7.93461204 C2.45243788,7.24684258 2.72505407,6.59552375 3.07382283,5.99384304 L2.20394658,4.54776172 C2.00671219,4.21979468 2.05821778,3.79964659 2.3288317,3.52903267 L3.52903267,2.3288317 C3.79964659,2.05821778 4.21979468,2.00671219 4.54776172,2.20394658 L5.99384304,3.07382283 C6.59552375,2.72505407 7.24684258,2.45243788 7.93461204,2.26916174 L8.34267242,0.632043101 C8.43511436,0.260669604 8.76862388,9.68114477e-14 9.15132975,9.68114477e-14 L10.8486702,9.68114477e-14 Z M10,4 C6.6862915,4 4,6.6862915 4,10 C4,13.3137085 6.6862915,16 10,16 C13.3137085,16 16,13.3137085 16,10 C16,6.6862915 13.3137085,4 10,4 Z M10,6 C12.209139,6 14,7.790861 14,10 C14,12.209139 12.209139,14 10,14 C7.790861,14 6,12.209139 6,10 C6,7.790861 7.790861,6 10,6 Z M10,8 C8.8954305,8 8,8.8954305 8,10 C8,11.1045695 8.8954305,12 10,12 C11.1045695,12 12,11.1045695 12,10 C12,8.8954305 11.1045695,8 10,8 Z" id="ðŸŽ-Culoare" fill="currentcolor" ></path>
                    </g>
                </g>
            </g>
        </g>
    </g>
</svg>