<?xml version="1.0" encoding="UTF-8"?>
<svg width="20px" height="20px" viewBox="0 0 20 20" version="1.1" xmlns="http://www.w3.org/2000/svg" xmlns:xlink="http://www.w3.org/1999/xlink">
    <title>521AB730-A9EF-4333-8DFE-A000CD952C84</title>
    <g id="ðŸŽ¨-Styleguide" stroke="none" stroke-width="1" fill="none" fill-rule="evenodd">
        <g id="00-01-Styleguide" transform="translate(-195.000000, -5121.000000)" fill="#fff">
            <g id="Icon" transform="translate(195.000000, 5121.000000)">
                <path d="M16,8 C16.6666667,8.66666667 17.3333333,9 18,9 L18,9 L18,18 L19,18 C19.5522847,18 20,18.4477153 20,19 L20,20 L0,20 L0,19 C-6.76353751e-17,18.4477153 0.44771525,18 1,18 L2,18 L2,9 C2.61111111,9 3.22222222,8.71990741 3.83333333,8.15972222 L4,8 C4.66666667,8.66666667 5.33333333,9 6,9 C6.66666667,9 7.33333333,8.66666667 8,8 C8.66666667,8.66666667 9.33333333,9 10,9 C10.6666667,9 11.3333333,8.66666667 12,8 C12.6666667,8.66666667 13.3333333,9 14,9 C14.6666667,9 15.3333333,8.66666667 16,8 Z M12,11 L8,11 L8,18 L12,18 L12,11 Z M7,11 L4,11 L4,16 L7,16 L7,11 Z M16,11 L13,11 L13,16 L16,16 L16,11 Z M14.6492189,2.27373675e-13 C14.8762904,2.24556406e-13 15.0966009,0.0772807521 15.273914,0.219131191 L19.999,3.999 L20,4 L20,5 C20,6.1045695 19.1045695,7 18,7 C16.9456382,7 16.0818349,6.18412221 16.0054857,5.14926234 L16,5 C16,6.1045695 15.1045695,7 14,7 C12.9456382,7 12.0818349,6.18412221 12.0054857,5.14926234 L12,5 C12,6.1045695 11.1045695,7 10,7 C8.9456382,7 8.08183488,6.18412221 8.00548574,5.14926234 L8,5 C8,6.1045695 7.1045695,7 6,7 C4.9456382,7 4.08183488,6.18412221 4.00548574,5.14926234 L4,5 C4,6.1045695 3.1045695,7 2,7 C0.8954305,7 1.3527075e-16,6.1045695 0,5 L0,4 L0.001,3.999 L4.72608601,0.219131191 C4.90339906,0.0772807521 5.12370956,2.27415388e-13 5.35078106,2.27373675e-13 L14.6492189,2.27373675e-13 Z" id="ðŸŽ-Color"></path>
            </g>
        </g>
    </g>
</svg>