<?xml version="1.0" encoding="UTF-8"?>
<svg width="20px" height="20px" viewBox="0 0 20 20" version="1.1" xmlns="http://www.w3.org/2000/svg" xmlns:xlink="http://www.w3.org/1999/xlink">
    <title>04DCAB9C-6789-48E0-A9AE-B446228B053E</title>
    <g id="Cover" stroke="none" stroke-width="1" fill="none" fill-rule="evenodd">
        <g id="Icons-and-illustrations" transform="translate(-732.000000, -238.000000)" fill="currentColor">
            <g id="Suggestion-box" transform="translate(732.000000, 238.000000)">
                <path d="M15,0 L15,4 L18,4 C19.0543618,4 19.9181651,4.81587779 19.9945143,5.85073766 L20,6 L20,18 C20,19.0543618 19.1841222,19.9181651 18.1492623,19.9945143 L18,20 L2,20 C0.945638205,20 0.0818348781,19.1841222 0.00548573643,18.1492623 L0,18 L0,6 C-1.2912208e-16,4.9456382 0.815877791,4.08183488 1.85073766,4.00548574 L2,4 L5,4 L5,0 L15,0 Z M18,12 L2,12 L2,18 L18,18 L18,12 Z M13,2 L7,2 L7,7 L5,7 L5,6 L2,6 L2,10 L18,10 L18,6 L15,6 L15,7 L17,7 L17,9 L3,9 L3,7 L13,7 L13,2 Z" id="Shape"></path>
            </g>
        </g>
    </g>
</svg>
