<?xml version="1.0" encoding="UTF-8"?>
<svg width="20px" height="20px" viewBox="0 0 20 20" version="1.1" xmlns="http://www.w3.org/2000/svg" xmlns:xlink="http://www.w3.org/1999/xlink">
    <title>Icons/View</title>
    <g id="Icons/View" stroke="none" stroke-width="1" fill="none" fill-rule="evenodd">
        <path d="M10.0908731,3 C14.7126024,3 18.6543406,5.91138819 20.1821494,10.0002263 C18.6536473,14.0891239 14.712196,17 10.0908731,17 C5.46955028,17 1.52809898,14.0891239 8.8817842e-14,10.0008525 C1.52740562,5.91138819 5.46914379,3 10.0908731,3 Z M10.0908731,5.15384615 C6.87117003,5.15384615 3.98728212,6.93626816 2.5081172,9.6746062 L2.34133465,10 L2.36935952,10.0584726 C3.75862577,12.8597513 6.58937887,14.7301622 9.7897848,14.8409481 L10.0908731,14.8461538 C13.4141012,14.8461538 16.3797641,12.9472334 17.8127316,10.0579194 L17.8393347,10 L17.8127598,9.94227828 C16.4236418,7.14061034 13.5926856,5.26985901 10.3919889,5.15905284 L10.0908731,5.15384615 Z M10,6 C10.4097984,6 10.8052036,6.06162492 11.1774539,6.17611322 C10.4831541,6.49010301 10,7.18862816 10,8 C10,9.1045695 10.8954305,10 12,10 C12.8113718,10 13.509897,9.51684593 13.8235627,8.82255053 C13.9383751,9.19479642 14,9.59020157 14,10 C14,12.209139 12.209139,14 10,14 C7.790861,14 6,12.209139 6,10 C6,7.790861 7.790861,6 10,6 Z" id="Combined-Shape"  fill="#008641"></path>
    </g>
</svg>